<mxfile host="app.diagrams.net" agent="Mozilla/5.0 (Windows NT 10.0; Win64; x64) AppleWebKit/537.36 (KHTML, like Gecko) Chrome/131.0.0.0 Safari/537.36" version="25.0.3">
  <diagram name="第 1 页" id="-5jbNcioRM-X0HrcF8Un">
    <mxGraphModel dx="1750" dy="883" grid="1" gridSize="10" guides="1" tooltips="1" connect="1" arrows="1" fold="1" page="1" pageScale="1" pageWidth="827" pageHeight="1169" math="0" shadow="0">
      <root>
        <mxCell id="0" />
        <mxCell id="1" parent="0" />
        <UserObject label="" plantUmlData="{&quot;data&quot;:&quot;@startuml Music Website Architecture\n\n&#39; 设置样式保持不变\nskinparam componentStyle uml2\nskinparam component {\n  BackgroundColor White\n  BorderColor Black\n  ArrowColor Black\n}\n\n&#39; Frontend包保持不变\npackage \&quot;Frontend\&quot; {\n  [Music Client\\n(Vue3 + TypeScript)] as client #lightblue\n  [Music Management\\n(Vue3 + TypeScript)] as manage #lightgreen\n  \n  package \&quot;Common Components\&quot; {\n    [Vue Router]\n    [Vuex Store]\n    [Element Plus UI]\n    [Axios HTTP]\n    [Echarts]\n  }\n}\n\npackage \&quot;Backend\&quot; {\n  [Spring Boot Application] as springboot\n  \n  package \&quot;Core Services\&quot; {\n    [User Service] as userService\n    [MinIO Service] as minioService\n    [Song Service] as songService #orange\n    [Singer Service] as singerService\n    [Song List Service] as songListService\n    [Comment Service] as commentService\n    [Collection Service] as collectService\n  }\n  \n  package \&quot;Data Access\&quot; {\n    [MyBatis Plus] as mybatis\n    [MySQL Database] as mysql\n  }\n  \n  package \&quot;Storage\&quot; {\n    [MinIO Object Storage] as minio\n    [Redis Cache] as redis\n  }\n}\n\n&#39; 前端连接关系保持不变\nclient --&gt; [Vue Router] : \&quot;路由管理，处理页面跳转\&quot;\nclient --&gt; [Vuex Store] : \&quot;状态管理，存储全局数据\&quot;\nclient --&gt; [Element Plus UI] : \&quot;使用UI组件库构建界面\&quot;\nclient --&gt; [Axios HTTP] : \&quot;发送HTTP请求到后端\&quot;\n\nmanage --&gt; [Vue Router] : \&quot;管理端路由控制\&quot;\nmanage --&gt; [Vuex Store] : \&quot;管理端状态管理\&quot;\nmanage --&gt; [Element Plus UI] : \&quot;管理端界面组件\&quot;\nmanage --&gt; [Axios HTTP] : \&quot;管理端API请求\&quot;\nmanage --&gt; [Echarts] : \&quot;数据可视化展示\&quot;\n\n[Axios HTTP] --&gt; springboot : \&quot;RESTful API通信\\n处理前后端数据交互\&quot;\n\n&#39; 修改后端服务连接关系\nspringboot --&gt; userService : \&quot;处理用户相关业务逻辑\&quot;\nspringboot --&gt; minioService : \&quot;处理文件存储业务逻辑\&quot;\nspringboot --&gt; songService : \&quot;处理音乐相关业务逻辑\&quot; \nspringboot --&gt; singerService : \&quot;处理歌手相关业务逻辑\&quot;\nspringboot --&gt; songListService : \&quot;处理歌单相关业务逻辑\&quot;\nspringboot --&gt; commentService : \&quot;处理评论相关业务逻辑\&quot;\nspringboot --&gt; collectService : \&quot;处理收藏相关业务逻辑\&quot;\n\nuserService --&gt; mybatis : \&quot;用户数据访问层\&quot;\nsongService --&gt; mybatis : \&quot;音乐数据访问层\&quot;\nsingerService --&gt; mybatis : \&quot;歌手数据访问层\&quot;\nsongListService --&gt; mybatis : \&quot;歌单数据访问层\&quot;\ncommentService --&gt; mybatis : \&quot;评论数据访问层\&quot;\ncollectService --&gt; mybatis : \&quot;收藏数据访问层\&quot;\n\nmybatis --&gt; mysql : \&quot;持久化数据存储\&quot;\n\nminioService --&gt; minio : \&quot;存储音乐文件、图片等媒体文件\&quot;\nuserService --&gt; redis : \&quot;缓存用户会话信息和常用数据\&quot;\n\n&#39; legend部分保持不变\nlegend right\n  项目技术栈说明:\n  前端: Vue3 + TypeScript + Element Plus\n  - 实现用户界面和交互\n  - 数据可视化和状态管理\n  \n  后端: Spring Boot + MyBatis Plus\n  - 处理业务逻辑\n  - 数据访问和安全控制\n  \n  存储: MySQL + Redis + MinIO\n  - 数据持久化\n  - 缓存加速\n  - 媒体文件存储\nendlegend\n\n@enduml&quot;,&quot;format&quot;:&quot;svg&quot;}" id="3UoCJvOvS2DFAWXhbIh_-2">
          <mxCell style="shape=image;noLabel=1;verticalAlign=top;aspect=fixed;imageAspect=0;image=data:image/svg+xml,PD94bWwgdmVyc2lvbj0iMS4wIiBlbmNvZGluZz0idXMtYXNjaWkiIHN0YW5kYWxvbmU9Im5vIj8+PHN2ZyB4bWxucz0iaHR0cDovL3d3dy53My5vcmcvMjAwMC9zdmciIHhtbG5zOnhsaW5rPSJodHRwOi8vd3d3LnczLm9yZy8xOTk5L3hsaW5rIiBjb250ZW50U3R5bGVUeXBlPSJ0ZXh0L2NzcyIgaGVpZ2h0PSIxMTAxcHgiIHByZXNlcnZlQXNwZWN0UmF0aW89Im5vbmUiIHN0eWxlPSJ3aWR0aDoxNzk3cHg7aGVpZ2h0OjExMDFweDtiYWNrZ3JvdW5kOiNGRkZGRkY7IiB2ZXJzaW9uPSIxLjEiIHZpZXdCb3g9IjAgMCAxNzk3IDExMDEiIHdpZHRoPSIxNzk3cHgiIHpvb21BbmRQYW49Im1hZ25pZnkiPjxkZWZzLz48Zz48IS0tY2x1c3RlciBGcm9udGVuZC0tPjxnIGlkPSJjbHVzdGVyX0Zyb250ZW5kIj48cGF0aCBkPSJNNDA1LjUsNiBMNDYyLjUsNiBBMy43NSwzLjc1IDAgMCAxIDQ2NSw4LjUgTDQ3MiwyNi45ODQ0IEwxNzg3LjUsMjYuOTg0NCBBMi41LDIuNSAwIDAgMSAxNzkwLDI5LjQ4NDQgTDE3OTAsMjc1LjUgQTIuNSwyLjUgMCAwIDEgMTc4Ny41LDI3OCBMNDA1LjUsMjc4IEEyLjUsMi41IDAgMCAxIDQwMywyNzUuNSBMNDAzLDguNSBBMi41LDIuNSAwIDAgMSA0MDUuNSw2ICIgZmlsbD0ibm9uZSIgc3R5bGU9InN0cm9rZTojMDAwMDAwO3N0cm9rZS13aWR0aDoxLjU7Ii8+PGxpbmUgc3R5bGU9InN0cm9rZTojMDAwMDAwO3N0cm9rZS13aWR0aDoxLjU7IiB4MT0iNDAzIiB4Mj0iNDcyIiB5MT0iMjYuOTg0NCIgeTI9IjI2Ljk4NDQiLz48dGV4dCBmaWxsPSIjMDAwMDAwIiBmb250LWZhbWlseT0ic2Fucy1zZXJpZiIgZm9udC1zaXplPSIxNCIgZm9udC13ZWlnaHQ9ImJvbGQiIGxlbmd0aEFkanVzdD0ic3BhY2luZyIgdGV4dExlbmd0aD0iNTYiIHg9IjQwNyIgeT0iMjEuMjM0NCI+RnJvbnRlbmQ8L3RleHQ+PC9nPjwhLS1jbHVzdGVyIENvbW1vbiBDb21wb25lbnRzLS0+PGcgaWQ9ImNsdXN0ZXJfQ29tbW9uIENvbXBvbmVudHMiPjxwYXRoIGQ9Ik00MjkuNSwxNjAgTDU1Mi41LDE2MCBBMy43NSwzLjc1IDAgMCAxIDU1NSwxNjIuNSBMNTYyLDE4MC45ODQ0IEwxMTYxLjUsMTgwLjk4NDQgQTIuNSwyLjUgMCAwIDEgMTE2NCwxODMuNDg0NCBMMTE2NCwyNTEuNSBBMi41LDIuNSAwIDAgMSAxMTYxLjUsMjU0IEw0MjkuNSwyNTQgQTIuNSwyLjUgMCAwIDEgNDI3LDI1MS41IEw0MjcsMTYyLjUgQTIuNSwyLjUgMCAwIDEgNDI5LjUsMTYwICIgZmlsbD0ibm9uZSIgc3R5bGU9InN0cm9rZTojMDAwMDAwO3N0cm9rZS13aWR0aDoxLjU7Ii8+PGxpbmUgc3R5bGU9InN0cm9rZTojMDAwMDAwO3N0cm9rZS13aWR0aDoxLjU7IiB4MT0iNDI3IiB4Mj0iNTYyIiB5MT0iMTgwLjk4NDQiIHkyPSIxODAuOTg0NCIvPjx0ZXh0IGZpbGw9IiMwMDAwMDAiIGZvbnQtZmFtaWx5PSJzYW5zLXNlcmlmIiBmb250LXNpemU9IjE0IiBmb250LXdlaWdodD0iYm9sZCIgbGVuZ3RoQWRqdXN0PSJzcGFjaW5nIiB0ZXh0TGVuZ3RoPSIxMjIiIHg9IjQzMSIgeT0iMTc1LjIzNDQiPkNvbW1vbiBDb21wb25lbnRzPC90ZXh0PjwvZz48IS0tY2x1c3RlciBCYWNrZW5kLS0+PGcgaWQ9ImNsdXN0ZXJfQmFja2VuZCI+PHBhdGggZD0iTTguNSwzMzkgTDU4LjUsMzM5IEEzLjc1LDMuNzUgMCAwIDEgNjEsMzQxLjUgTDY4LDM1OS45ODQ0IEwxMjgzLjUsMzU5Ljk4NDQgQTIuNSwyLjUgMCAwIDEgMTI4NiwzNjIuNDg0NCBMMTI4Niw4NTYuNSBBMi41LDIuNSAwIDAgMSAxMjgzLjUsODU5IEw4LjUsODU5IEEyLjUsMi41IDAgMCAxIDYsODU2LjUgTDYsMzQxLjUgQTIuNSwyLjUgMCAwIDEgOC41LDMzOSAiIGZpbGw9Im5vbmUiIHN0eWxlPSJzdHJva2U6IzAwMDAwMDtzdHJva2Utd2lkdGg6MS41OyIvPjxsaW5lIHN0eWxlPSJzdHJva2U6IzAwMDAwMDtzdHJva2Utd2lkdGg6MS41OyIgeDE9IjYiIHgyPSI2OCIgeTE9IjM1OS45ODQ0IiB5Mj0iMzU5Ljk4NDQiLz48dGV4dCBmaWxsPSIjMDAwMDAwIiBmb250LWZhbWlseT0ic2Fucy1zZXJpZiIgZm9udC1zaXplPSIxNCIgZm9udC13ZWlnaHQ9ImJvbGQiIGxlbmd0aEFkanVzdD0ic3BhY2luZyIgdGV4dExlbmd0aD0iNDkiIHg9IjEwIiB5PSIzNTQuMjM0NCI+QmFja2VuZDwvdGV4dD48L2c+PCEtLWNsdXN0ZXIgQ29yZSBTZXJ2aWNlcy0tPjxnIGlkPSJjbHVzdGVyX0NvcmUgU2VydmljZXMiPjxwYXRoIGQ9Ik0zMi41LDQ3OCBMMTI0LjUsNDc4IEEzLjc1LDMuNzUgMCAwIDEgMTI3LDQ4MC41IEwxMzQsNDk4Ljk4NDQgTDEyNTkuNSw0OTguOTg0NCBBMi41LDIuNSAwIDAgMSAxMjYyLDUwMS40ODQ0IEwxMjYyLDU2OS41IEEyLjUsMi41IDAgMCAxIDEyNTkuNSw1NzIgTDMyLjUsNTcyIEEyLjUsMi41IDAgMCAxIDMwLDU2OS41IEwzMCw0ODAuNSBBMi41LDIuNSAwIDAgMSAzMi41LDQ3OCAiIGZpbGw9Im5vbmUiIHN0eWxlPSJzdHJva2U6IzAwMDAwMDtzdHJva2Utd2lkdGg6MS41OyIvPjxsaW5lIHN0eWxlPSJzdHJva2U6IzAwMDAwMDtzdHJva2Utd2lkdGg6MS41OyIgeDE9IjMwIiB4Mj0iMTM0IiB5MT0iNDk4Ljk4NDQiIHkyPSI0OTguOTg0NCIvPjx0ZXh0IGZpbGw9IiMwMDAwMDAiIGZvbnQtZmFtaWx5PSJzYW5zLXNlcmlmIiBmb250LXNpemU9IjE0IiBmb250LXdlaWdodD0iYm9sZCIgbGVuZ3RoQWRqdXN0PSJzcGFjaW5nIiB0ZXh0TGVuZ3RoPSI5MSIgeD0iMzQiIHk9IjQ5My4yMzQ0Ij5Db3JlIFNlcnZpY2VzPC90ZXh0PjwvZz48IS0tY2x1c3RlciBEYXRhIEFjY2Vzcy0tPjxnIGlkPSJjbHVzdGVyX0RhdGEgQWNjZXNzIj48cGF0aCBkPSJNNzUzLjUsNjE5IEw4MzEuNSw2MTkgQTMuNzUsMy43NSAwIDAgMSA4MzQsNjIxLjUgTDg0MSw2MzkuOTg0NCBMOTE4LjUsNjM5Ljk4NDQgQTIuNSwyLjUgMCAwIDEgOTIxLDY0Mi40ODQ0IEw5MjEsODMyLjUgQTIuNSwyLjUgMCAwIDEgOTE4LjUsODM1IEw3NTMuNSw4MzUgQTIuNSwyLjUgMCAwIDEgNzUxLDgzMi41IEw3NTEsNjIxLjUgQTIuNSwyLjUgMCAwIDEgNzUzLjUsNjE5ICIgZmlsbD0ibm9uZSIgc3R5bGU9InN0cm9rZTojMDAwMDAwO3N0cm9rZS13aWR0aDoxLjU7Ii8+PGxpbmUgc3R5bGU9InN0cm9rZTojMDAwMDAwO3N0cm9rZS13aWR0aDoxLjU7IiB4MT0iNzUxIiB4Mj0iODQxIiB5MT0iNjM5Ljk4NDQiIHkyPSI2MzkuOTg0NCIvPjx0ZXh0IGZpbGw9IiMwMDAwMDAiIGZvbnQtZmFtaWx5PSJzYW5zLXNlcmlmIiBmb250LXNpemU9IjE0IiBmb250LXdlaWdodD0iYm9sZCIgbGVuZ3RoQWRqdXN0PSJzcGFjaW5nIiB0ZXh0TGVuZ3RoPSI3NyIgeD0iNzU1IiB5PSI2MzQuMjM0NCI+RGF0YSBBY2Nlc3M8L3RleHQ+PC9nPjwhLS1jbHVzdGVyIFN0b3JhZ2UtLT48ZyBpZD0iY2x1c3Rlcl9TdG9yYWdlIj48cGF0aCBkPSJNODIuNSw2MTkgTDEzMi41LDYxOSBBMy43NSwzLjc1IDAgMCAxIDEzNSw2MjEuNSBMMTQyLDYzOS45ODQ0IEw0NDIuNSw2MzkuOTg0NCBBMi41LDIuNSAwIDAgMSA0NDUsNjQyLjQ4NDQgTDQ0NSw3MTAuNSBBMi41LDIuNSAwIDAgMSA0NDIuNSw3MTMgTDgyLjUsNzEzIEEyLjUsMi41IDAgMCAxIDgwLDcxMC41IEw4MCw2MjEuNSBBMi41LDIuNSAwIDAgMSA4Mi41LDYxOSAiIGZpbGw9Im5vbmUiIHN0eWxlPSJzdHJva2U6IzAwMDAwMDtzdHJva2Utd2lkdGg6MS41OyIvPjxsaW5lIHN0eWxlPSJzdHJva2U6IzAwMDAwMDtzdHJva2Utd2lkdGg6MS41OyIgeDE9IjgwIiB4Mj0iMTQyIiB5MT0iNjM5Ljk4NDQiIHkyPSI2MzkuOTg0NCIvPjx0ZXh0IGZpbGw9IiMwMDAwMDAiIGZvbnQtZmFtaWx5PSJzYW5zLXNlcmlmIiBmb250LXNpemU9IjE0IiBmb250LXdlaWdodD0iYm9sZCIgbGVuZ3RoQWRqdXN0PSJzcGFjaW5nIiB0ZXh0TGVuZ3RoPSI0OSIgeD0iODQiIHk9IjYzNC4yMzQ0Ij5TdG9yYWdlPC90ZXh0PjwvZz48IS0tZW50aXR5IGNsaWVudC0tPjxnIGlkPSJlbGVtX2NsaWVudCI+PHJlY3QgZmlsbD0iI0FERDhFNiIgaGVpZ2h0PSI1OS45Njg4IiByeD0iMi41IiByeT0iMi41IiBzdHlsZT0ic3Ryb2tlOiMwMDAwMDA7c3Ryb2tlLXdpZHRoOjAuNTsiIHdpZHRoPSIxNzUiIHg9IjEyNzYuNSIgeT0iMzkiLz48cmVjdCBmaWxsPSIjQUREOEU2IiBoZWlnaHQ9IjEwIiBzdHlsZT0ic3Ryb2tlOiMwMDAwMDA7c3Ryb2tlLXdpZHRoOjAuNTsiIHdpZHRoPSIxNSIgeD0iMTQzMS41IiB5PSI0NCIvPjxyZWN0IGZpbGw9IiNBREQ4RTYiIGhlaWdodD0iMiIgc3R5bGU9InN0cm9rZTojMDAwMDAwO3N0cm9rZS13aWR0aDowLjU7IiB3aWR0aD0iNCIgeD0iMTQyOS41IiB5PSI0NiIvPjxyZWN0IGZpbGw9IiNBREQ4RTYiIGhlaWdodD0iMiIgc3R5bGU9InN0cm9rZTojMDAwMDAwO3N0cm9rZS13aWR0aDowLjU7IiB3aWR0aD0iNCIgeD0iMTQyOS41IiB5PSI1MCIvPjx0ZXh0IGZpbGw9IiMwMDAwMDAiIGZvbnQtZmFtaWx5PSJzYW5zLXNlcmlmIiBmb250LXNpemU9IjE0IiBsZW5ndGhBZGp1c3Q9InNwYWNpbmciIHRleHRMZW5ndGg9Ijg0IiB4PSIxMjkxLjUiIHk9IjcyLjIzNDQiPk11c2ljIENsaWVudDwvdGV4dD48dGV4dCBmaWxsPSIjMDAwMDAwIiBmb250LWZhbWlseT0ic2Fucy1zZXJpZiIgZm9udC1zaXplPSIxNCIgbGVuZ3RoQWRqdXN0PSJzcGFjaW5nIiB0ZXh0TGVuZ3RoPSIxMzUiIHg9IjEyOTEuNSIgeT0iODcuMjE4OCI+KFZ1ZTMgKyBUeXBlU2NyaXB0KTwvdGV4dD48L2c+PCEtLWVudGl0eSBtYW5hZ2UtLT48ZyBpZD0iZWxlbV9tYW5hZ2UiPjxyZWN0IGZpbGw9IiM5MEVFOTAiIGhlaWdodD0iNTkuOTY4OCIgcng9IjIuNSIgcnk9IjIuNSIgc3R5bGU9InN0cm9rZTojMDAwMDAwO3N0cm9rZS13aWR0aDowLjU7IiB3aWR0aD0iMTc1IiB4PSI2MjYuNSIgeT0iMzkiLz48cmVjdCBmaWxsPSIjOTBFRTkwIiBoZWlnaHQ9IjEwIiBzdHlsZT0ic3Ryb2tlOiMwMDAwMDA7c3Ryb2tlLXdpZHRoOjAuNTsiIHdpZHRoPSIxNSIgeD0iNzgxLjUiIHk9IjQ0Ii8+PHJlY3QgZmlsbD0iIzkwRUU5MCIgaGVpZ2h0PSIyIiBzdHlsZT0ic3Ryb2tlOiMwMDAwMDA7c3Ryb2tlLXdpZHRoOjAuNTsiIHdpZHRoPSI0IiB4PSI3NzkuNSIgeT0iNDYiLz48cmVjdCBmaWxsPSIjOTBFRTkwIiBoZWlnaHQ9IjIiIHN0eWxlPSJzdHJva2U6IzAwMDAwMDtzdHJva2Utd2lkdGg6MC41OyIgd2lkdGg9IjQiIHg9Ijc3OS41IiB5PSI1MCIvPjx0ZXh0IGZpbGw9IiMwMDAwMDAiIGZvbnQtZmFtaWx5PSJzYW5zLXNlcmlmIiBmb250LXNpemU9IjE0IiBsZW5ndGhBZGp1c3Q9InNwYWNpbmciIHRleHRMZW5ndGg9IjExMyIgeD0iNjQxLjUiIHk9IjcyLjIzNDQiPk11c2ljIE1hbmFnZW1lbnQ8L3RleHQ+PHRleHQgZmlsbD0iIzAwMDAwMCIgZm9udC1mYW1pbHk9InNhbnMtc2VyaWYiIGZvbnQtc2l6ZT0iMTQiIGxlbmd0aEFkanVzdD0ic3BhY2luZyIgdGV4dExlbmd0aD0iMTM1IiB4PSI2NDEuNSIgeT0iODcuMjE4OCI+KFZ1ZTMgKyBUeXBlU2NyaXB0KTwvdGV4dD48L2c+PCEtLWVudGl0eSBWdWUgUm91dGVyLS0+PGcgaWQ9ImVsZW1fVnVlIFJvdXRlciI+PHJlY3QgZmlsbD0iI0ZGRkZGRiIgaGVpZ2h0PSI0NC45ODQ0IiByeD0iMi41IiByeT0iMi41IiBzdHlsZT0ic3Ryb2tlOiMwMDAwMDA7c3Ryb2tlLXdpZHRoOjAuNTsiIHdpZHRoPSIxMTAiIHg9IjcxMiIgeT0iMTkzIi8+PHJlY3QgZmlsbD0iI0ZGRkZGRiIgaGVpZ2h0PSIxMCIgc3R5bGU9InN0cm9rZTojMDAwMDAwO3N0cm9rZS13aWR0aDowLjU7IiB3aWR0aD0iMTUiIHg9IjgwMiIgeT0iMTk4Ii8+PHJlY3QgZmlsbD0iI0ZGRkZGRiIgaGVpZ2h0PSIyIiBzdHlsZT0ic3Ryb2tlOiMwMDAwMDA7c3Ryb2tlLXdpZHRoOjAuNTsiIHdpZHRoPSI0IiB4PSI4MDAiIHk9IjIwMCIvPjxyZWN0IGZpbGw9IiNGRkZGRkYiIGhlaWdodD0iMiIgc3R5bGU9InN0cm9rZTojMDAwMDAwO3N0cm9rZS13aWR0aDowLjU7IiB3aWR0aD0iNCIgeD0iODAwIiB5PSIyMDQiLz48dGV4dCBmaWxsPSIjMDAwMDAwIiBmb250LWZhbWlseT0ic2Fucy1zZXJpZiIgZm9udC1zaXplPSIxNCIgbGVuZ3RoQWRqdXN0PSJzcGFjaW5nIiB0ZXh0TGVuZ3RoPSI3MCIgeD0iNzI3IiB5PSIyMjYuMjM0NCI+VnVlIFJvdXRlcjwvdGV4dD48L2c+PCEtLWVudGl0eSBWdWV4IFN0b3JlLS0+PGcgaWQ9ImVsZW1fVnVleCBTdG9yZSI+PHJlY3QgZmlsbD0iI0ZGRkZGRiIgaGVpZ2h0PSI0NC45ODQ0IiByeD0iMi41IiByeT0iMi41IiBzdHlsZT0ic3Ryb2tlOiMwMDAwMDA7c3Ryb2tlLXdpZHRoOjAuNTsiIHdpZHRoPSIxMTAiIHg9IjEwMzgiIHk9IjE5MyIvPjxyZWN0IGZpbGw9IiNGRkZGRkYiIGhlaWdodD0iMTAiIHN0eWxlPSJzdHJva2U6IzAwMDAwMDtzdHJva2Utd2lkdGg6MC41OyIgd2lkdGg9IjE1IiB4PSIxMTI4IiB5PSIxOTgiLz48cmVjdCBmaWxsPSIjRkZGRkZGIiBoZWlnaHQ9IjIiIHN0eWxlPSJzdHJva2U6IzAwMDAwMDtzdHJva2Utd2lkdGg6MC41OyIgd2lkdGg9IjQiIHg9IjExMjYiIHk9IjIwMCIvPjxyZWN0IGZpbGw9IiNGRkZGRkYiIGhlaWdodD0iMiIgc3R5bGU9InN0cm9rZTojMDAwMDAwO3N0cm9rZS13aWR0aDowLjU7IiB3aWR0aD0iNCIgeD0iMTEyNiIgeT0iMjA0Ii8+PHRleHQgZmlsbD0iIzAwMDAwMCIgZm9udC1mYW1pbHk9InNhbnMtc2VyaWYiIGZvbnQtc2l6ZT0iMTQiIGxlbmd0aEFkanVzdD0ic3BhY2luZyIgdGV4dExlbmd0aD0iNzAiIHg9IjEwNTMiIHk9IjIyNi4yMzQ0Ij5WdWV4IFN0b3JlPC90ZXh0PjwvZz48IS0tZW50aXR5IEVsZW1lbnQgUGx1cyBVSS0tPjxnIGlkPSJlbGVtX0VsZW1lbnQgUGx1cyBVSSI+PHJlY3QgZmlsbD0iI0ZGRkZGRiIgaGVpZ2h0PSI0NC45ODQ0IiByeD0iMi41IiByeT0iMi41IiBzdHlsZT0ic3Ryb2tlOiMwMDAwMDA7c3Ryb2tlLXdpZHRoOjAuNTsiIHdpZHRoPSIxNDYiIHg9Ijg1NyIgeT0iMTkzIi8+PHJlY3QgZmlsbD0iI0ZGRkZGRiIgaGVpZ2h0PSIxMCIgc3R5bGU9InN0cm9rZTojMDAwMDAwO3N0cm9rZS13aWR0aDowLjU7IiB3aWR0aD0iMTUiIHg9Ijk4MyIgeT0iMTk4Ii8+PHJlY3QgZmlsbD0iI0ZGRkZGRiIgaGVpZ2h0PSIyIiBzdHlsZT0ic3Ryb2tlOiMwMDAwMDA7c3Ryb2tlLXdpZHRoOjAuNTsiIHdpZHRoPSI0IiB4PSI5ODEiIHk9IjIwMCIvPjxyZWN0IGZpbGw9IiNGRkZGRkYiIGhlaWdodD0iMiIgc3R5bGU9InN0cm9rZTojMDAwMDAwO3N0cm9rZS13aWR0aDowLjU7IiB3aWR0aD0iNCIgeD0iOTgxIiB5PSIyMDQiLz48dGV4dCBmaWxsPSIjMDAwMDAwIiBmb250LWZhbWlseT0ic2Fucy1zZXJpZiIgZm9udC1zaXplPSIxNCIgbGVuZ3RoQWRqdXN0PSJzcGFjaW5nIiB0ZXh0TGVuZ3RoPSIxMDYiIHg9Ijg3MiIgeT0iMjI2LjIzNDQiPkVsZW1lbnQgUGx1cyBVSTwvdGV4dD48L2c+PCEtLWVudGl0eSBBeGlvcyBIVFRQLS0+PGcgaWQ9ImVsZW1fQXhpb3MgSFRUUCI+PHJlY3QgZmlsbD0iI0ZGRkZGRiIgaGVpZ2h0PSI0NC45ODQ0IiByeD0iMi41IiByeT0iMi41IiBzdHlsZT0ic3Ryb2tlOiMwMDAwMDA7c3Ryb2tlLXdpZHRoOjAuNTsiIHdpZHRoPSIxMTAiIHg9IjU2NyIgeT0iMTkzIi8+PHJlY3QgZmlsbD0iI0ZGRkZGRiIgaGVpZ2h0PSIxMCIgc3R5bGU9InN0cm9rZTojMDAwMDAwO3N0cm9rZS13aWR0aDowLjU7IiB3aWR0aD0iMTUiIHg9IjY1NyIgeT0iMTk4Ii8+PHJlY3QgZmlsbD0iI0ZGRkZGRiIgaGVpZ2h0PSIyIiBzdHlsZT0ic3Ryb2tlOiMwMDAwMDA7c3Ryb2tlLXdpZHRoOjAuNTsiIHdpZHRoPSI0IiB4PSI2NTUiIHk9IjIwMCIvPjxyZWN0IGZpbGw9IiNGRkZGRkYiIGhlaWdodD0iMiIgc3R5bGU9InN0cm9rZTojMDAwMDAwO3N0cm9rZS13aWR0aDowLjU7IiB3aWR0aD0iNCIgeD0iNjU1IiB5PSIyMDQiLz48dGV4dCBmaWxsPSIjMDAwMDAwIiBmb250LWZhbWlseT0ic2Fucy1zZXJpZiIgZm9udC1zaXplPSIxNCIgbGVuZ3RoQWRqdXN0PSJzcGFjaW5nIiB0ZXh0TGVuZ3RoPSI3MCIgeD0iNTgyIiB5PSIyMjYuMjM0NCI+QXhpb3MgSFRUUDwvdGV4dD48L2c+PCEtLWVudGl0eSBFY2hhcnRzLS0+PGcgaWQ9ImVsZW1fRWNoYXJ0cyI+PHJlY3QgZmlsbD0iI0ZGRkZGRiIgaGVpZ2h0PSI0NC45ODQ0IiByeD0iMi41IiByeT0iMi41IiBzdHlsZT0ic3Ryb2tlOiMwMDAwMDA7c3Ryb2tlLXdpZHRoOjAuNTsiIHdpZHRoPSI4OSIgeD0iNDQyLjUiIHk9IjE5MyIvPjxyZWN0IGZpbGw9IiNGRkZGRkYiIGhlaWdodD0iMTAiIHN0eWxlPSJzdHJva2U6IzAwMDAwMDtzdHJva2Utd2lkdGg6MC41OyIgd2lkdGg9IjE1IiB4PSI1MTEuNSIgeT0iMTk4Ii8+PHJlY3QgZmlsbD0iI0ZGRkZGRiIgaGVpZ2h0PSIyIiBzdHlsZT0ic3Ryb2tlOiMwMDAwMDA7c3Ryb2tlLXdpZHRoOjAuNTsiIHdpZHRoPSI0IiB4PSI1MDkuNSIgeT0iMjAwIi8+PHJlY3QgZmlsbD0iI0ZGRkZGRiIgaGVpZ2h0PSIyIiBzdHlsZT0ic3Ryb2tlOiMwMDAwMDA7c3Ryb2tlLXdpZHRoOjAuNTsiIHdpZHRoPSI0IiB4PSI1MDkuNSIgeT0iMjA0Ii8+PHRleHQgZmlsbD0iIzAwMDAwMCIgZm9udC1mYW1pbHk9InNhbnMtc2VyaWYiIGZvbnQtc2l6ZT0iMTQiIGxlbmd0aEFkanVzdD0ic3BhY2luZyIgdGV4dExlbmd0aD0iNDkiIHg9IjQ1Ny41IiB5PSIyMjYuMjM0NCI+RWNoYXJ0czwvdGV4dD48L2c+PCEtLWVudGl0eSBzcHJpbmdib290LS0+PGcgaWQ9ImVsZW1fc3ByaW5nYm9vdCI+PHJlY3QgZmlsbD0iI0ZGRkZGRiIgaGVpZ2h0PSI0NC45ODQ0IiByeD0iMi41IiByeT0iMi41IiBzdHlsZT0ic3Ryb2tlOiMwMDAwMDA7c3Ryb2tlLXdpZHRoOjAuNTsiIHdpZHRoPSIyMDEiIHg9IjUyMS41IiB5PSIzNzIiLz48cmVjdCBmaWxsPSIjRkZGRkZGIiBoZWlnaHQ9IjEwIiBzdHlsZT0ic3Ryb2tlOiMwMDAwMDA7c3Ryb2tlLXdpZHRoOjAuNTsiIHdpZHRoPSIxNSIgeD0iNzAyLjUiIHk9IjM3NyIvPjxyZWN0IGZpbGw9IiNGRkZGRkYiIGhlaWdodD0iMiIgc3R5bGU9InN0cm9rZTojMDAwMDAwO3N0cm9rZS13aWR0aDowLjU7IiB3aWR0aD0iNCIgeD0iNzAwLjUiIHk9IjM3OSIvPjxyZWN0IGZpbGw9IiNGRkZGRkYiIGhlaWdodD0iMiIgc3R5bGU9InN0cm9rZTojMDAwMDAwO3N0cm9rZS13aWR0aDowLjU7IiB3aWR0aD0iNCIgeD0iNzAwLjUiIHk9IjM4MyIvPjx0ZXh0IGZpbGw9IiMwMDAwMDAiIGZvbnQtZmFtaWx5PSJzYW5zLXNlcmlmIiBmb250LXNpemU9IjE0IiBsZW5ndGhBZGp1c3Q9InNwYWNpbmciIHRleHRMZW5ndGg9IjE2MSIgeD0iNTM2LjUiIHk9IjQwNS4yMzQ0Ij5TcHJpbmcgQm9vdCBBcHBsaWNhdGlvbjwvdGV4dD48L2c+PCEtLWVudGl0eSB1c2VyU2VydmljZS0tPjxnIGlkPSJlbGVtX3VzZXJTZXJ2aWNlIj48cmVjdCBmaWxsPSIjRkZGRkZGIiBoZWlnaHQ9IjQ0Ljk4NDQiIHJ4PSIyLjUiIHJ5PSIyLjUiIHN0eWxlPSJzdHJva2U6IzAwMDAwMDtzdHJva2Utd2lkdGg6MC41OyIgd2lkdGg9IjEyNCIgeD0iNDA2IiB5PSI1MTEiLz48cmVjdCBmaWxsPSIjRkZGRkZGIiBoZWlnaHQ9IjEwIiBzdHlsZT0ic3Ryb2tlOiMwMDAwMDA7c3Ryb2tlLXdpZHRoOjAuNTsiIHdpZHRoPSIxNSIgeD0iNTEwIiB5PSI1MTYiLz48cmVjdCBmaWxsPSIjRkZGRkZGIiBoZWlnaHQ9IjIiIHN0eWxlPSJzdHJva2U6IzAwMDAwMDtzdHJva2Utd2lkdGg6MC41OyIgd2lkdGg9IjQiIHg9IjUwOCIgeT0iNTE4Ii8+PHJlY3QgZmlsbD0iI0ZGRkZGRiIgaGVpZ2h0PSIyIiBzdHlsZT0ic3Ryb2tlOiMwMDAwMDA7c3Ryb2tlLXdpZHRoOjAuNTsiIHdpZHRoPSI0IiB4PSI1MDgiIHk9IjUyMiIvPjx0ZXh0IGZpbGw9IiMwMDAwMDAiIGZvbnQtZmFtaWx5PSJzYW5zLXNlcmlmIiBmb250LXNpemU9IjE0IiBsZW5ndGhBZGp1c3Q9InNwYWNpbmciIHRleHRMZW5ndGg9Ijg0IiB4PSI0MjEiIHk9IjU0NC4yMzQ0Ij5Vc2VyIFNlcnZpY2U8L3RleHQ+PC9nPjwhLS1lbnRpdHkgbWluaW9TZXJ2aWNlLS0+PGcgaWQ9ImVsZW1fbWluaW9TZXJ2aWNlIj48cmVjdCBmaWxsPSIjRkZGRkZGIiBoZWlnaHQ9IjQ0Ljk4NDQiIHJ4PSIyLjUiIHJ5PSIyLjUiIHN0eWxlPSJzdHJva2U6IzAwMDAwMDtzdHJva2Utd2lkdGg6MC41OyIgd2lkdGg9IjEzMSIgeD0iNDYuNSIgeT0iNTExIi8+PHJlY3QgZmlsbD0iI0ZGRkZGRiIgaGVpZ2h0PSIxMCIgc3R5bGU9InN0cm9rZTojMDAwMDAwO3N0cm9rZS13aWR0aDowLjU7IiB3aWR0aD0iMTUiIHg9IjE1Ny41IiB5PSI1MTYiLz48cmVjdCBmaWxsPSIjRkZGRkZGIiBoZWlnaHQ9IjIiIHN0eWxlPSJzdHJva2U6IzAwMDAwMDtzdHJva2Utd2lkdGg6MC41OyIgd2lkdGg9IjQiIHg9IjE1NS41IiB5PSI1MTgiLz48cmVjdCBmaWxsPSIjRkZGRkZGIiBoZWlnaHQ9IjIiIHN0eWxlPSJzdHJva2U6IzAwMDAwMDtzdHJva2Utd2lkdGg6MC41OyIgd2lkdGg9IjQiIHg9IjE1NS41IiB5PSI1MjIiLz48dGV4dCBmaWxsPSIjMDAwMDAwIiBmb250LWZhbWlseT0ic2Fucy1zZXJpZiIgZm9udC1zaXplPSIxNCIgbGVuZ3RoQWRqdXN0PSJzcGFjaW5nIiB0ZXh0TGVuZ3RoPSI5MSIgeD0iNjEuNSIgeT0iNTQ0LjIzNDQiPk1pbklPIFNlcnZpY2U8L3RleHQ+PC9nPjwhLS1lbnRpdHkgc29uZ1NlcnZpY2UtLT48ZyBpZD0iZWxlbV9zb25nU2VydmljZSI+PHJlY3QgZmlsbD0iI0ZGQTUwMCIgaGVpZ2h0PSI0NC45ODQ0IiByeD0iMi41IiByeT0iMi41IiBzdHlsZT0ic3Ryb2tlOiMwMDAwMDA7c3Ryb2tlLXdpZHRoOjAuNTsiIHdpZHRoPSIxMjQiIHg9Ijk0OSIgeT0iNTExIi8+PHJlY3QgZmlsbD0iI0ZGQTUwMCIgaGVpZ2h0PSIxMCIgc3R5bGU9InN0cm9rZTojMDAwMDAwO3N0cm9rZS13aWR0aDowLjU7IiB3aWR0aD0iMTUiIHg9IjEwNTMiIHk9IjUxNiIvPjxyZWN0IGZpbGw9IiNGRkE1MDAiIGhlaWdodD0iMiIgc3R5bGU9InN0cm9rZTojMDAwMDAwO3N0cm9rZS13aWR0aDowLjU7IiB3aWR0aD0iNCIgeD0iMTA1MSIgeT0iNTE4Ii8+PHJlY3QgZmlsbD0iI0ZGQTUwMCIgaGVpZ2h0PSIyIiBzdHlsZT0ic3Ryb2tlOiMwMDAwMDA7c3Ryb2tlLXdpZHRoOjAuNTsiIHdpZHRoPSI0IiB4PSIxMDUxIiB5PSI1MjIiLz48dGV4dCBmaWxsPSIjMDAwMDAwIiBmb250LWZhbWlseT0ic2Fucy1zZXJpZiIgZm9udC1zaXplPSIxNCIgbGVuZ3RoQWRqdXN0PSJzcGFjaW5nIiB0ZXh0TGVuZ3RoPSI4NCIgeD0iOTY0IiB5PSI1NDQuMjM0NCI+U29uZyBTZXJ2aWNlPC90ZXh0PjwvZz48IS0tZW50aXR5IHNpbmdlclNlcnZpY2UtLT48ZyBpZD0iZWxlbV9zaW5nZXJTZXJ2aWNlIj48cmVjdCBmaWxsPSIjRkZGRkZGIiBoZWlnaHQ9IjQ0Ljk4NDQiIHJ4PSIyLjUiIHJ5PSIyLjUiIHN0eWxlPSJzdHJva2U6IzAwMDAwMDtzdHJva2Utd2lkdGg6MC41OyIgd2lkdGg9IjEzOCIgeD0iMTEwOCIgeT0iNTExIi8+PHJlY3QgZmlsbD0iI0ZGRkZGRiIgaGVpZ2h0PSIxMCIgc3R5bGU9InN0cm9rZTojMDAwMDAwO3N0cm9rZS13aWR0aDowLjU7IiB3aWR0aD0iMTUiIHg9IjEyMjYiIHk9IjUxNiIvPjxyZWN0IGZpbGw9IiNGRkZGRkYiIGhlaWdodD0iMiIgc3R5bGU9InN0cm9rZTojMDAwMDAwO3N0cm9rZS13aWR0aDowLjU7IiB3aWR0aD0iNCIgeD0iMTIyNCIgeT0iNTE4Ii8+PHJlY3QgZmlsbD0iI0ZGRkZGRiIgaGVpZ2h0PSIyIiBzdHlsZT0ic3Ryb2tlOiMwMDAwMDA7c3Ryb2tlLXdpZHRoOjAuNTsiIHdpZHRoPSI0IiB4PSIxMjI0IiB5PSI1MjIiLz48dGV4dCBmaWxsPSIjMDAwMDAwIiBmb250LWZhbWlseT0ic2Fucy1zZXJpZiIgZm9udC1zaXplPSIxNCIgbGVuZ3RoQWRqdXN0PSJzcGFjaW5nIiB0ZXh0TGVuZ3RoPSI5OCIgeD0iMTEyMyIgeT0iNTQ0LjIzNDQiPlNpbmdlciBTZXJ2aWNlPC90ZXh0PjwvZz48IS0tZW50aXR5IHNvbmdMaXN0U2VydmljZS0tPjxnIGlkPSJlbGVtX3NvbmdMaXN0U2VydmljZSI+PHJlY3QgZmlsbD0iI0ZGRkZGRiIgaGVpZ2h0PSI0NC45ODQ0IiByeD0iMi41IiByeT0iMi41IiBzdHlsZT0ic3Ryb2tlOiMwMDAwMDA7c3Ryb2tlLXdpZHRoOjAuNTsiIHdpZHRoPSIxNTkiIHg9IjIxMi41IiB5PSI1MTEiLz48cmVjdCBmaWxsPSIjRkZGRkZGIiBoZWlnaHQ9IjEwIiBzdHlsZT0ic3Ryb2tlOiMwMDAwMDA7c3Ryb2tlLXdpZHRoOjAuNTsiIHdpZHRoPSIxNSIgeD0iMzUxLjUiIHk9IjUxNiIvPjxyZWN0IGZpbGw9IiNGRkZGRkYiIGhlaWdodD0iMiIgc3R5bGU9InN0cm9rZTojMDAwMDAwO3N0cm9rZS13aWR0aDowLjU7IiB3aWR0aD0iNCIgeD0iMzQ5LjUiIHk9IjUxOCIvPjxyZWN0IGZpbGw9IiNGRkZGRkYiIGhlaWdodD0iMiIgc3R5bGU9InN0cm9rZTojMDAwMDAwO3N0cm9rZS13aWR0aDowLjU7IiB3aWR0aD0iNCIgeD0iMzQ5LjUiIHk9IjUyMiIvPjx0ZXh0IGZpbGw9IiMwMDAwMDAiIGZvbnQtZmFtaWx5PSJzYW5zLXNlcmlmIiBmb250LXNpemU9IjE0IiBsZW5ndGhBZGp1c3Q9InNwYWNpbmciIHRleHRMZW5ndGg9IjExOSIgeD0iMjI3LjUiIHk9IjU0NC4yMzQ0Ij5Tb25nIExpc3QgU2VydmljZTwvdGV4dD48L2c+PCEtLWVudGl0eSBjb21tZW50U2VydmljZS0tPjxnIGlkPSJlbGVtX2NvbW1lbnRTZXJ2aWNlIj48cmVjdCBmaWxsPSIjRkZGRkZGIiBoZWlnaHQ9IjQ0Ljk4NDQiIHJ4PSIyLjUiIHJ5PSIyLjUiIHN0eWxlPSJzdHJva2U6IzAwMDAwMDtzdHJva2Utd2lkdGg6MC41OyIgd2lkdGg9IjE0NyIgeD0iNTY1LjUiIHk9IjUxMSIvPjxyZWN0IGZpbGw9IiNGRkZGRkYiIGhlaWdodD0iMTAiIHN0eWxlPSJzdHJva2U6IzAwMDAwMDtzdHJva2Utd2lkdGg6MC41OyIgd2lkdGg9IjE1IiB4PSI2OTIuNSIgeT0iNTE2Ii8+PHJlY3QgZmlsbD0iI0ZGRkZGRiIgaGVpZ2h0PSIyIiBzdHlsZT0ic3Ryb2tlOiMwMDAwMDA7c3Ryb2tlLXdpZHRoOjAuNTsiIHdpZHRoPSI0IiB4PSI2OTAuNSIgeT0iNTE4Ii8+PHJlY3QgZmlsbD0iI0ZGRkZGRiIgaGVpZ2h0PSIyIiBzdHlsZT0ic3Ryb2tlOiMwMDAwMDA7c3Ryb2tlLXdpZHRoOjAuNTsiIHdpZHRoPSI0IiB4PSI2OTAuNSIgeT0iNTIyIi8+PHRleHQgZmlsbD0iIzAwMDAwMCIgZm9udC1mYW1pbHk9InNhbnMtc2VyaWYiIGZvbnQtc2l6ZT0iMTQiIGxlbmd0aEFkanVzdD0ic3BhY2luZyIgdGV4dExlbmd0aD0iMTA3IiB4PSI1ODAuNSIgeT0iNTQ0LjIzNDQiPkNvbW1lbnQgU2VydmljZTwvdGV4dD48L2c+PCEtLWVudGl0eSBjb2xsZWN0U2VydmljZS0tPjxnIGlkPSJlbGVtX2NvbGxlY3RTZXJ2aWNlIj48cmVjdCBmaWxsPSIjRkZGRkZGIiBoZWlnaHQ9IjQ0Ljk4NDQiIHJ4PSIyLjUiIHJ5PSIyLjUiIHN0eWxlPSJzdHJva2U6IzAwMDAwMDtzdHJva2Utd2lkdGg6MC41OyIgd2lkdGg9IjE2NiIgeD0iNzQ4IiB5PSI1MTEiLz48cmVjdCBmaWxsPSIjRkZGRkZGIiBoZWlnaHQ9IjEwIiBzdHlsZT0ic3Ryb2tlOiMwMDAwMDA7c3Ryb2tlLXdpZHRoOjAuNTsiIHdpZHRoPSIxNSIgeD0iODk0IiB5PSI1MTYiLz48cmVjdCBmaWxsPSIjRkZGRkZGIiBoZWlnaHQ9IjIiIHN0eWxlPSJzdHJva2U6IzAwMDAwMDtzdHJva2Utd2lkdGg6MC41OyIgd2lkdGg9IjQiIHg9Ijg5MiIgeT0iNTE4Ii8+PHJlY3QgZmlsbD0iI0ZGRkZGRiIgaGVpZ2h0PSIyIiBzdHlsZT0ic3Ryb2tlOiMwMDAwMDA7c3Ryb2tlLXdpZHRoOjAuNTsiIHdpZHRoPSI0IiB4PSI4OTIiIHk9IjUyMiIvPjx0ZXh0IGZpbGw9IiMwMDAwMDAiIGZvbnQtZmFtaWx5PSJzYW5zLXNlcmlmIiBmb250LXNpemU9IjE0IiBsZW5ndGhBZGp1c3Q9InNwYWNpbmciIHRleHRMZW5ndGg9IjEyNiIgeD0iNzYzIiB5PSI1NDQuMjM0NCI+Q29sbGVjdGlvbiBTZXJ2aWNlPC90ZXh0PjwvZz48IS0tZW50aXR5IG15YmF0aXMtLT48ZyBpZD0iZWxlbV9teWJhdGlzIj48cmVjdCBmaWxsPSIjRkZGRkZGIiBoZWlnaHQ9IjQ0Ljk4NDQiIHJ4PSIyLjUiIHJ5PSIyLjUiIHN0eWxlPSJzdHJva2U6IzAwMDAwMDtzdHJva2Utd2lkdGg6MC41OyIgd2lkdGg9IjEyNCIgeD0iNzY3IiB5PSI2NTIiLz48cmVjdCBmaWxsPSIjRkZGRkZGIiBoZWlnaHQ9IjEwIiBzdHlsZT0ic3Ryb2tlOiMwMDAwMDA7c3Ryb2tlLXdpZHRoOjAuNTsiIHdpZHRoPSIxNSIgeD0iODcxIiB5PSI2NTciLz48cmVjdCBmaWxsPSIjRkZGRkZGIiBoZWlnaHQ9IjIiIHN0eWxlPSJzdHJva2U6IzAwMDAwMDtzdHJva2Utd2lkdGg6MC41OyIgd2lkdGg9IjQiIHg9Ijg2OSIgeT0iNjU5Ii8+PHJlY3QgZmlsbD0iI0ZGRkZGRiIgaGVpZ2h0PSIyIiBzdHlsZT0ic3Ryb2tlOiMwMDAwMDA7c3Ryb2tlLXdpZHRoOjAuNTsiIHdpZHRoPSI0IiB4PSI4NjkiIHk9IjY2MyIvPjx0ZXh0IGZpbGw9IiMwMDAwMDAiIGZvbnQtZmFtaWx5PSJzYW5zLXNlcmlmIiBmb250LXNpemU9IjE0IiBsZW5ndGhBZGp1c3Q9InNwYWNpbmciIHRleHRMZW5ndGg9Ijg0IiB4PSI3ODIiIHk9IjY4NS4yMzQ0Ij5NeUJhdGlzIFBsdXM8L3RleHQ+PC9nPjwhLS1lbnRpdHkgbXlzcWwtLT48ZyBpZD0iZWxlbV9teXNxbCI+PHJlY3QgZmlsbD0iI0ZGRkZGRiIgaGVpZ2h0PSI0NC45ODQ0IiByeD0iMi41IiByeT0iMi41IiBzdHlsZT0ic3Ryb2tlOiMwMDAwMDA7c3Ryb2tlLXdpZHRoOjAuNTsiIHdpZHRoPSIxMzgiIHg9Ijc2NyIgeT0iNzc0Ii8+PHJlY3QgZmlsbD0iI0ZGRkZGRiIgaGVpZ2h0PSIxMCIgc3R5bGU9InN0cm9rZTojMDAwMDAwO3N0cm9rZS13aWR0aDowLjU7IiB3aWR0aD0iMTUiIHg9Ijg4NSIgeT0iNzc5Ii8+PHJlY3QgZmlsbD0iI0ZGRkZGRiIgaGVpZ2h0PSIyIiBzdHlsZT0ic3Ryb2tlOiMwMDAwMDA7c3Ryb2tlLXdpZHRoOjAuNTsiIHdpZHRoPSI0IiB4PSI4ODMiIHk9Ijc4MSIvPjxyZWN0IGZpbGw9IiNGRkZGRkYiIGhlaWdodD0iMiIgc3R5bGU9InN0cm9rZTojMDAwMDAwO3N0cm9rZS13aWR0aDowLjU7IiB3aWR0aD0iNCIgeD0iODgzIiB5PSI3ODUiLz48dGV4dCBmaWxsPSIjMDAwMDAwIiBmb250LWZhbWlseT0ic2Fucy1zZXJpZiIgZm9udC1zaXplPSIxNCIgbGVuZ3RoQWRqdXN0PSJzcGFjaW5nIiB0ZXh0TGVuZ3RoPSI5OCIgeD0iNzgyIiB5PSI4MDcuMjM0NCI+TXlTUUwgRGF0YWJhc2U8L3RleHQ+PC9nPjwhLS1lbnRpdHkgbWluaW8tLT48ZyBpZD0iZWxlbV9taW5pbyI+PHJlY3QgZmlsbD0iI0ZGRkZGRiIgaGVpZ2h0PSI0NC45ODQ0IiByeD0iMi41IiByeT0iMi41IiBzdHlsZT0ic3Ryb2tlOiMwMDAwMDA7c3Ryb2tlLXdpZHRoOjAuNTsiIHdpZHRoPSIxODAiIHg9Ijk2IiB5PSI2NTIiLz48cmVjdCBmaWxsPSIjRkZGRkZGIiBoZWlnaHQ9IjEwIiBzdHlsZT0ic3Ryb2tlOiMwMDAwMDA7c3Ryb2tlLXdpZHRoOjAuNTsiIHdpZHRoPSIxNSIgeD0iMjU2IiB5PSI2NTciLz48cmVjdCBmaWxsPSIjRkZGRkZGIiBoZWlnaHQ9IjIiIHN0eWxlPSJzdHJva2U6IzAwMDAwMDtzdHJva2Utd2lkdGg6MC41OyIgd2lkdGg9IjQiIHg9IjI1NCIgeT0iNjU5Ii8+PHJlY3QgZmlsbD0iI0ZGRkZGRiIgaGVpZ2h0PSIyIiBzdHlsZT0ic3Ryb2tlOiMwMDAwMDA7c3Ryb2tlLXdpZHRoOjAuNTsiIHdpZHRoPSI0IiB4PSIyNTQiIHk9IjY2MyIvPjx0ZXh0IGZpbGw9IiMwMDAwMDAiIGZvbnQtZmFtaWx5PSJzYW5zLXNlcmlmIiBmb250LXNpemU9IjE0IiBsZW5ndGhBZGp1c3Q9InNwYWNpbmciIHRleHRMZW5ndGg9IjE0MCIgeD0iMTExIiB5PSI2ODUuMjM0NCI+TWluSU8gT2JqZWN0IFN0b3JhZ2U8L3RleHQ+PC9nPjwhLS1lbnRpdHkgcmVkaXMtLT48ZyBpZD0iZWxlbV9yZWRpcyI+PHJlY3QgZmlsbD0iI0ZGRkZGRiIgaGVpZ2h0PSI0NC45ODQ0IiByeD0iMi41IiByeT0iMi41IiBzdHlsZT0ic3Ryb2tlOiMwMDAwMDA7c3Ryb2tlLXdpZHRoOjAuNTsiIHdpZHRoPSIxMTciIHg9IjMxMS41IiB5PSI2NTIiLz48cmVjdCBmaWxsPSIjRkZGRkZGIiBoZWlnaHQ9IjEwIiBzdHlsZT0ic3Ryb2tlOiMwMDAwMDA7c3Ryb2tlLXdpZHRoOjAuNTsiIHdpZHRoPSIxNSIgeD0iNDA4LjUiIHk9IjY1NyIvPjxyZWN0IGZpbGw9IiNGRkZGRkYiIGhlaWdodD0iMiIgc3R5bGU9InN0cm9rZTojMDAwMDAwO3N0cm9rZS13aWR0aDowLjU7IiB3aWR0aD0iNCIgeD0iNDA2LjUiIHk9IjY1OSIvPjxyZWN0IGZpbGw9IiNGRkZGRkYiIGhlaWdodD0iMiIgc3R5bGU9InN0cm9rZTojMDAwMDAwO3N0cm9rZS13aWR0aDowLjU7IiB3aWR0aD0iNCIgeD0iNDA2LjUiIHk9IjY2MyIvPjx0ZXh0IGZpbGw9IiMwMDAwMDAiIGZvbnQtZmFtaWx5PSJzYW5zLXNlcmlmIiBmb250LXNpemU9IjE0IiBsZW5ndGhBZGp1c3Q9InNwYWNpbmciIHRleHRMZW5ndGg9Ijc3IiB4PSIzMjYuNSIgeT0iNjg1LjIzNDQiPlJlZGlzIENhY2hlPC90ZXh0PjwvZz48IS0tbGluayBjbGllbnQgdG8gVnVlIFJvdXRlci0tPjxnIGlkPSJsaW5rX2NsaWVudF9WdWUgUm91dGVyIj48cGF0aCBkPSJNMTMxNS4yMyw5OS4wOCBDMTI4MS44MywxMTguNzMgMTI0Mi4wMSwxNDEuNTMgMTIzMywxNDQgQzExOTAuODgsMTU1LjU0IDg4MC44MSwxMzYuNDQgODQwLDE1MiBDODE4LjE3LDE2MC4zMiA4MDIuNDY1OCwxNzMuODI2OSA3ODkuMDE1OCwxODguMzU2OSAiIGZpbGw9Im5vbmUiIGlkPSJjbGllbnQtdG8tVnVlIFJvdXRlciIgc3R5bGU9InN0cm9rZTojMDAwMDAwO3N0cm9rZS13aWR0aDoxLjA7Ii8+PHBvbHlnb24gZmlsbD0iIzAwMDAwMCIgcG9pbnRzPSI3ODQuOTQsMTkyLjc2LDc5My45ODkyLDE4OC44NzI1LDc4OC4zMzY1LDE4OS4wOTA3LDc4OC4xMTg0LDE4My40MzgxLDc4NC45NCwxOTIuNzYiIHN0eWxlPSJzdHJva2U6IzAwMDAwMDtzdHJva2Utd2lkdGg6MS4wOyIvPjx0ZXh0IGZpbGw9IiMwMDAwMDAiIGZvbnQtZmFtaWx5PSJzYW5zLXNlcmlmIiBmb250LXNpemU9IjEzIiBsZW5ndGhBZGp1c3Q9InNwYWNpbmciIHRleHRMZW5ndGg9IjE0MyIgeD0iMTI2MiIgeT0iMTQyLjI4OTEiPiYjMzYzMzU7JiMzMDAwMTsmIzMxNjQ5OyYjMjk3MDI7JiM2NTI5MjsmIzIyNzg4OyYjMjk3MDI7JiMzOTAyOTsmIzM4NzU0OyYjMzYzMzk7JiMzNjcxNjs8L3RleHQ+PC9nPjwhLS1saW5rIGNsaWVudCB0byBWdWV4IFN0b3JlLS0+PGcgaWQ9ImxpbmtfY2xpZW50X1Z1ZXggU3RvcmUiPjxwYXRoIGQ9Ik0xNDUxLjUyLDcyLjIyIEMxNTMyLjMzLDc3LjM4IDE2MzMuNzEsOTMuNjUgMTU5MCwxNDQgQzE1MzMuMywyMDkuMzEgMTI3MS43MiwyMTUuNzUxNSAxMTU0LjM3LDIxNS4zMzE1ICIgZmlsbD0ibm9uZSIgaWQ9ImNsaWVudC10by1WdWV4IFN0b3JlIiBzdHlsZT0ic3Ryb2tlOiMwMDAwMDA7c3Ryb2tlLXdpZHRoOjEuMDsiLz48cG9seWdvbiBmaWxsPSIjMDAwMDAwIiBwb2ludHM9IjExNDguMzcsMjE1LjMxLDExNTcuMzU1NiwyMTkuMzQyMiwxMTUzLjM3LDIxNS4zMjc5LDExNTcuMzg0MywyMTEuMzQyMiwxMTQ4LjM3LDIxNS4zMSIgc3R5bGU9InN0cm9rZTojMDAwMDAwO3N0cm9rZS13aWR0aDoxLjA7Ii8+PHRleHQgZmlsbD0iIzAwMDAwMCIgZm9udC1mYW1pbHk9InNhbnMtc2VyaWYiIGZvbnQtc2l6ZT0iMTMiIGxlbmd0aEFkanVzdD0ic3BhY2luZyIgdGV4dExlbmd0aD0iMTQzIiB4PSIxNTk5IiB5PSIxNDIuMjg5MSI+JiMyOTM2NjsmIzI0NTc3OyYjMzE2NDk7JiMyOTcwMjsmIzY1MjkyOyYjMjMzODQ7JiMyMDY0ODsmIzIwODQwOyYjMjM2MTY7JiMyNTk2ODsmIzI1NDU0OzwvdGV4dD48L2c+PCEtLWxpbmsgY2xpZW50IHRvIEVsZW1lbnQgUGx1cyBVSS0tPjxnIGlkPSJsaW5rX2NsaWVudF9FbGVtZW50IFBsdXMgVUkiPjxwYXRoIGQ9Ik0xNDA1LjIyLDk5LjI4IEMxNDIwLjUxLDExMy41NCAxNDMxLjI1LDEzMC40OCAxNDE4LDE0NCBDMTQwMi41NiwxNTkuNzYgMTA0MiwxNDUuMjUgMTAyMSwxNTIgQzk5NS40NSwxNjAuMjEgOTc1LjIxMzksMTc0LjI1ODYgOTU3Ljk3MzksMTg4LjgxODYgIiBmaWxsPSJub25lIiBpZD0iY2xpZW50LXRvLUVsZW1lbnQgUGx1cyBVSSIgc3R5bGU9InN0cm9rZTojMDAwMDAwO3N0cm9rZS13aWR0aDoxLjA7Ii8+PHBvbHlnb24gZmlsbD0iIzAwMDAwMCIgcG9pbnRzPSI5NTMuMzksMTkyLjY5LDk2Mi44NDY4LDE4OS45Mzg5LDk1Ny4yMSwxODkuNDYzOSw5NTcuNjg1LDE4My44MjcsOTUzLjM5LDE5Mi42OSIgc3R5bGU9InN0cm9rZTojMDAwMDAwO3N0cm9rZS13aWR0aDoxLjA7Ii8+PHRleHQgZmlsbD0iIzAwMDAwMCIgZm9udC1mYW1pbHk9InNhbnMtc2VyaWYiIGZvbnQtc2l6ZT0iMTMiIGxlbmd0aEFkanVzdD0ic3BhY2luZyIgdGV4dExlbmd0aD0iMTMwIiB4PSIxNDI0IiB5PSIxNDIuMjg5MSI+JiMyMDM1MTsmIzI5OTkyO1VJJiMzMjQ1MjsmIzIwMjE0OyYjMjQyMTE7JiMyNjUwMDsmIzI0MzE0OyYjMzAwMjg7JiMzODc1NDs8L3RleHQ+PC9nPjwhLS1saW5rIGNsaWVudCB0byBBeGlvcyBIVFRQLS0+PGcgaWQ9ImxpbmtfY2xpZW50X0F4aW9zIEhUVFAiPjxwYXRoIGQ9Ik0xMjc2LjQxLDg1LjIgQzEyMjUuODYsOTUuMTYgMTE2MS41LDEwOS44OSAxMTA2LDEyOSBDMTA5MS4xNSwxMzQuMTEgMTA4OS4yOSwxNDAuNDIgMTA3NCwxNDQgQzEwMzIuOTksMTUzLjU5IDczNC4zNSwxMzYuOTggNjk1LDE1MiBDNjczLjE4LDE2MC4zMyA2NTcuNDY3NCwxNzMuODM4MyA2NDQuMDE3NCwxODguMzU4MyAiIGZpbGw9Im5vbmUiIGlkPSJjbGllbnQtdG8tQXhpb3MgSFRUUCIgc3R5bGU9InN0cm9rZTojMDAwMDAwO3N0cm9rZS13aWR0aDoxLjA7Ii8+PHBvbHlnb24gZmlsbD0iIzAwMDAwMCIgcG9pbnRzPSI2MzkuOTQsMTkyLjc2LDY0OC45OTA1LDE4OC44NzU3LDY0My4zMzc4LDE4OS4wOTE5LDY0My4xMjE1LDE4My40MzkyLDYzOS45NCwxOTIuNzYiIHN0eWxlPSJzdHJva2U6IzAwMDAwMDtzdHJva2Utd2lkdGg6MS4wOyIvPjx0ZXh0IGZpbGw9IiMwMDAwMDAiIGZvbnQtZmFtaWx5PSJzYW5zLXNlcmlmIiBmb250LXNpemU9IjEzIiBsZW5ndGhBZGp1c3Q9InNwYWNpbmciIHRleHRMZW5ndGg9IjExNyIgeD0iMTEwNyIgeT0iMTQyLjI4OTEiPiYjMjE0NTc7JiMzNjg2NTtIVFRQJiMzNTgzMTsmIzI3NzE0OyYjMjEwNDA7JiMyMTUxODsmIzMxNDcxOzwvdGV4dD48L2c+PCEtLWxpbmsgbWFuYWdlIHRvIFZ1ZSBSb3V0ZXItLT48ZyBpZD0ibGlua19tYW5hZ2VfVnVlIFJvdXRlciI+PHBhdGggZD0iTTcwNy45Miw5OS4xOSBDNzA2LjI1LDExMy4xMiA3MDYuMDUsMTI5LjggNzExLDE0NCBDNzE3LjQ5LDE2Mi42IDcyNy4wMTU0LDE3NS42MjIgNzM5LjIyNTQsMTg4LjQ2MiAiIGZpbGw9Im5vbmUiIGlkPSJtYW5hZ2UtdG8tVnVlIFJvdXRlciIgc3R5bGU9InN0cm9rZTojMDAwMDAwO3N0cm9rZS13aWR0aDoxLjA7Ii8+PHBvbHlnb24gZmlsbD0iIzAwMDAwMCIgcG9pbnRzPSI3NDMuMzYsMTkyLjgxLDc0MC4wNTY3LDE4My41MzE2LDczOS45MTQ1LDE4OS4xODY3LDczNC4yNTk0LDE4OS4wNDQ1LDc0My4zNiwxOTIuODEiIHN0eWxlPSJzdHJva2U6IzAwMDAwMDtzdHJva2Utd2lkdGg6MS4wOyIvPjx0ZXh0IGZpbGw9IiMwMDAwMDAiIGZvbnQtZmFtaWx5PSJzYW5zLXNlcmlmIiBmb250LXNpemU9IjEzIiBsZW5ndGhBZGp1c3Q9InNwYWNpbmciIHRleHRMZW5ndGg9IjkxIiB4PSI3MTIiIHk9IjE0Mi4yODkxIj4mIzMxNjQ5OyYjMjk3MDI7JiMzMTQ3MTsmIzM2MzM1OyYjMzAwMDE7JiMyNTUxMTsmIzIxMDQ2OzwvdGV4dD48L2c+PCEtLWxpbmsgbWFuYWdlIHRvIFZ1ZXggU3RvcmUtLT48ZyBpZD0ibGlua19tYW5hZ2VfVnVleCBTdG9yZSI+PHBhdGggZD0iTTgwMS41NCw5My4yOCBDODQwLjY0LDEwMy44NiA4ODcuMjIsMTE2Ljc0IDkyOSwxMjkgQzk1MC40NSwxMzUuMjkgOTU1LjMsMTM4LjY2IDk3NywxNDQgQzk5Ni4zLDE0OC43NSAxMDAzLjA4LDE0My40IDEwMjEsMTUyIEMxMDQxLjQ1LDE2MS44MSAxMDU2LjQ2MSwxNzQuNzA0OSAxMDY5Ljg3MSwxODguNTg0OSAiIGZpbGw9Im5vbmUiIGlkPSJtYW5hZ2UtdG8tVnVleCBTdG9yZSIgc3R5bGU9InN0cm9rZTojMDAwMDAwO3N0cm9rZS13aWR0aDoxLjA7Ii8+PHBvbHlnb24gZmlsbD0iIzAwMDAwMCIgcG9pbnRzPSIxMDc0LjA0LDE5Mi45LDEwNzAuNjYzMywxODMuNjQ4MSwxMDcwLjU2NTksMTg5LjMwNDEsMTA2NC45MDk5LDE4OS4yMDY3LDEwNzQuMDQsMTkyLjkiIHN0eWxlPSJzdHJva2U6IzAwMDAwMDtzdHJva2Utd2lkdGg6MS4wOyIvPjx0ZXh0IGZpbGw9IiMwMDAwMDAiIGZvbnQtZmFtaWx5PSJzYW5zLXNlcmlmIiBmb250LXNpemU9IjEzIiBsZW5ndGhBZGp1c3Q9InNwYWNpbmciIHRleHRMZW5ndGg9IjkxIiB4PSI5NzgiIHk9IjE0Mi4yODkxIj4mIzMxNjQ5OyYjMjk3MDI7JiMzMTQ3MTsmIzI5MzY2OyYjMjQ1Nzc7JiMzMTY0OTsmIzI5NzAyOzwvdGV4dD48L2c+PCEtLWxpbmsgbWFuYWdlIHRvIEVsZW1lbnQgUGx1cyBVSS0tPjxnIGlkPSJsaW5rX21hbmFnZV9FbGVtZW50IFBsdXMgVUkiPjxwYXRoIGQ9Ik03NjEuNjQsOTkuMjUgQzc3Ni41OCwxMDguNiA3OTMuMDcsMTE5LjA5IDgwOCwxMjkgQzgzOS44OSwxNTAuMTcgODcwLjgxMSwxNzEuOTQ3OSA4OTUuMzMxLDE4OS40OTc5ICIgZmlsbD0ibm9uZSIgaWQ9Im1hbmFnZS10by1FbGVtZW50IFBsdXMgVUkiIHN0eWxlPSJzdHJva2U6IzAwMDAwMDtzdHJva2Utd2lkdGg6MS4wOyIvPjxwb2x5Z29uIGZpbGw9IiMwMDAwMDAiIHBvaW50cz0iOTAwLjIxLDE5Mi45OSw4OTUuMjE5NSwxODQuNDk5MSw4OTYuMTQ0MSwxOTAuMDc5OSw4OTAuNTYzNCwxOTEuMDA0NSw5MDAuMjEsMTkyLjk5IiBzdHlsZT0ic3Ryb2tlOiMwMDAwMDA7c3Ryb2tlLXdpZHRoOjEuMDsiLz48dGV4dCBmaWxsPSIjMDAwMDAwIiBmb250LWZhbWlseT0ic2Fucy1zZXJpZiIgZm9udC1zaXplPSIxMyIgbGVuZ3RoQWRqdXN0PSJzcGFjaW5nIiB0ZXh0TGVuZ3RoPSI5MSIgeD0iODI5IiB5PSIxNDIuMjg5MSI+JiMzMTY0OTsmIzI5NzAyOyYjMzE0NzE7JiMzMDAyODsmIzM4NzU0OyYjMzI0NTI7JiMyMDIxNDs8L3RleHQ+PC9nPjwhLS1saW5rIG1hbmFnZSB0byBBeGlvcyBIVFRQLS0+PGcgaWQ9ImxpbmtfbWFuYWdlX0F4aW9zIEhUVFAiPjxwYXRoIGQ9Ik02NDEuMjcsOTkuMDUgQzYyOS41NiwxMDYuOTkgNjE5LDExNi44NiA2MTIsMTI5IEM2MDAuOCwxNDguNDIgNjA0LjE4MTYsMTY4Ljc3NTUgNjEwLjU0MTYsMTg2Ljk4NTUgIiBmaWxsPSJub25lIiBpZD0ibWFuYWdlLXRvLUF4aW9zIEhUVFAiIHN0eWxlPSJzdHJva2U6IzAwMDAwMDtzdHJva2Utd2lkdGg6MS4wOyIvPjxwb2x5Z29uIGZpbGw9IiMwMDAwMDAiIHBvaW50cz0iNjEyLjUyLDE5Mi42NSw2MTMuMzI4OCwxODIuODM0NCw2MTAuODcxNCwxODcuOTI5Niw2MDUuNzc2MiwxODUuNDcyMiw2MTIuNTIsMTkyLjY1IiBzdHlsZT0ic3Ryb2tlOiMwMDAwMDA7c3Ryb2tlLXdpZHRoOjEuMDsiLz48dGV4dCBmaWxsPSIjMDAwMDAwIiBmb250LWZhbWlseT0ic2Fucy1zZXJpZiIgZm9udC1zaXplPSIxMyIgbGVuZ3RoQWRqdXN0PSJzcGFjaW5nIiB0ZXh0TGVuZ3RoPSI4NSIgeD0iNjEzIiB5PSIxNDIuMjg5MSI+JiMzMTY0OTsmIzI5NzAyOyYjMzE0NzE7QVBJJiMzNTgzMTsmIzI3NzE0OzwvdGV4dD48L2c+PCEtLWxpbmsgbWFuYWdlIHRvIEVjaGFydHMtLT48ZyBpZD0ibGlua19tYW5hZ2VfRWNoYXJ0cyI+PHBhdGggZD0iTTYyNi40LDc0LjE5IEM1ODQuMTQsODAuNzkgNTM2LjAyLDk1LjgxIDUwNSwxMjkgQzQ4OS4wNSwxNDYuMDcgNDg1LjgwNSwxNjcuNTQwMSA0ODUuNzI1LDE4Ni43MjAxICIgZmlsbD0ibm9uZSIgaWQ9Im1hbmFnZS10by1FY2hhcnRzIiBzdHlsZT0ic3Ryb2tlOiMwMDAwMDA7c3Ryb2tlLXdpZHRoOjEuMDsiLz48cG9seWdvbiBmaWxsPSIjMDAwMDAwIiBwb2ludHM9IjQ4NS43LDE5Mi43Miw0ODkuNzM3NSwxODMuNzM2OCw0ODUuNzIwOSwxODcuNzIsNDgxLjczNzYsMTgzLjcwMzQsNDg1LjcsMTkyLjcyIiBzdHlsZT0ic3Ryb2tlOiMwMDAwMDA7c3Ryb2tlLXdpZHRoOjEuMDsiLz48dGV4dCBmaWxsPSIjMDAwMDAwIiBmb250LWZhbWlseT0ic2Fucy1zZXJpZiIgZm9udC1zaXplPSIxMyIgbGVuZ3RoQWRqdXN0PSJzcGFjaW5nIiB0ZXh0TGVuZ3RoPSI5MSIgeD0iNTA2IiB5PSIxNDIuMjg5MSI+JiMyNTk2ODsmIzI1NDU0OyYjMjE0ODc7JiMzNTI3MDsmIzIxMjcwOyYjMjM2Mzc7JiMzMTAzNDs8L3RleHQ+PC9nPjwhLS1saW5rIEF4aW9zIEhUVFAgdG8gc3ByaW5nYm9vdC0tPjxnIGlkPSJsaW5rX0F4aW9zIEhUVFBfc3ByaW5nYm9vdCI+PHBhdGggZD0iTTYyMiwyMzguMiBDNjIyLDI3Mi4yNyA2MjIsMzMxLjg5IDYyMiwzNjUuOSAiIGZpbGw9Im5vbmUiIGlkPSJBeGlvcyBIVFRQLXRvLXNwcmluZ2Jvb3QiIHN0eWxlPSJzdHJva2U6IzAwMDAwMDtzdHJva2Utd2lkdGg6MS4wOyIvPjxwb2x5Z29uIGZpbGw9IiMwMDAwMDAiIHBvaW50cz0iNjIyLDM3MS45LDYyNiwzNjIuOSw2MjIsMzY2LjksNjE4LDM2Mi45LDYyMiwzNzEuOSIgc3R5bGU9InN0cm9rZTojMDAwMDAwO3N0cm9rZS13aWR0aDoxLjA7Ii8+PHRleHQgZmlsbD0iIzAwMDAwMCIgZm9udC1mYW1pbHk9InNhbnMtc2VyaWYiIGZvbnQtc2l6ZT0iMTMiIGxlbmd0aEFkanVzdD0ic3BhY2luZyIgdGV4dExlbmd0aD0iOTkiIHg9IjYzMiIgeT0iMzA3LjI4OTEiPlJFU1RmdWwgQVBJJiMzNjg5MDsmIzIwNDQ5OzwvdGV4dD48dGV4dCBmaWxsPSIjMDAwMDAwIiBmb250LWZhbWlseT0ic2Fucy1zZXJpZiIgZm9udC1zaXplPSIxMyIgbGVuZ3RoQWRqdXN0PSJzcGFjaW5nIiB0ZXh0TGVuZ3RoPSIxMTciIHg9IjYyMyIgeT0iMzIxLjIwMzEiPiYjMjI3ODg7JiMyOTcwMjsmIzIxMDY5OyYjMjE1MTg7JiMzMTQ3MTsmIzI1OTY4OyYjMjU0NTQ7JiMyMDEzMjsmIzIwMTE0OzwvdGV4dD48L2c+PCEtLWxpbmsgc3ByaW5nYm9vdCB0byB1c2VyU2VydmljZS0tPjxnIGlkPSJsaW5rX3NwcmluZ2Jvb3RfdXNlclNlcnZpY2UiPjxwYXRoIGQ9Ik01MjEuMjcsNDE1LjE3IEM1MDQuNjcsNDIyLjYxIDQ4OS4yNCw0MzIuODcgNDc4LDQ0NyBDNDYzLjc3LDQ2NC45IDQ2Mi40NDExLDQ4NS45NjM0IDQ2NC4xMTExLDUwNC44MzM0ICIgZmlsbD0ibm9uZSIgaWQ9InNwcmluZ2Jvb3QtdG8tdXNlclNlcnZpY2UiIHN0eWxlPSJzdHJva2U6IzAwMDAwMDtzdHJva2Utd2lkdGg6MS4wOyIvPjxwb2x5Z29uIGZpbGw9IiMwMDAwMDAiIHBvaW50cz0iNDY0LjY0LDUxMC44MSw0NjcuODMxLDUwMS40OTI0LDQ2NC4xOTkyLDUwNS44Mjk1LDQ1OS44NjIyLDUwMi4xOTc3LDQ2NC42NCw1MTAuODEiIHN0eWxlPSJzdHJva2U6IzAwMDAwMDtzdHJva2Utd2lkdGg6MS4wOyIvPjx0ZXh0IGZpbGw9IiMwMDAwMDAiIGZvbnQtZmFtaWx5PSJzYW5zLXNlcmlmIiBmb250LXNpemU9IjEzIiBsZW5ndGhBZGp1c3Q9InNwYWNpbmciIHRleHRMZW5ndGg9IjEzMCIgeD0iNDc5IiB5PSI0NjAuMjg5MSI+JiMyMjc4ODsmIzI5NzAyOyYjMjk5OTI7JiMyNTE0MzsmIzMwNDU2OyYjMjA4NTE7JiMxOTk5NDsmIzIxMTUzOyYjMzY5MjM7JiMzNjc1Mzs8L3RleHQ+PC9nPjwhLS1saW5rIHNwcmluZ2Jvb3QgdG8gbWluaW9TZXJ2aWNlLS0+PGcgaWQ9Imxpbmtfc3ByaW5nYm9vdF9taW5pb1NlcnZpY2UiPjxwYXRoIGQ9Ik01MjEuMjksMzk4LjE4IEM0MDguNzUsNDAyLjczIDIzNC44Myw0MTQuODggMTc4LDQ0NyBDMTUyLjIxLDQ2MS41OCAxMzUuOTQ5Myw0ODUuNDQ0MyAxMjUuMTA5Myw1MDUuNjI0MyAiIGZpbGw9Im5vbmUiIGlkPSJzcHJpbmdib290LXRvLW1pbmlvU2VydmljZSIgc3R5bGU9InN0cm9rZTojMDAwMDAwO3N0cm9rZS13aWR0aDoxLjA7Ii8+PHBvbHlnb24gZmlsbD0iIzAwMDAwMCIgcG9pbnRzPSIxMjIuMjcsNTEwLjkxLDEzMC4wNTI3LDUwNC44NzQzLDEyNC42MzYxLDUwNi41MDUzLDEyMy4wMDUxLDUwMS4wODg2LDEyMi4yNyw1MTAuOTEiIHN0eWxlPSJzdHJva2U6IzAwMDAwMDtzdHJva2Utd2lkdGg6MS4wOyIvPjx0ZXh0IGZpbGw9IiMwMDAwMDAiIGZvbnQtZmFtaWx5PSJzYW5zLXNlcmlmIiBmb250LXNpemU9IjEzIiBsZW5ndGhBZGp1c3Q9InNwYWNpbmciIHRleHRMZW5ndGg9IjEzMCIgeD0iMTc5IiB5PSI0NjAuMjg5MSI+JiMyMjc4ODsmIzI5NzAyOyYjMjU5OTE7JiMyMDIxNDsmIzIzMzg0OyYjMjA2NDg7JiMxOTk5NDsmIzIxMTUzOyYjMzY5MjM7JiMzNjc1Mzs8L3RleHQ+PC9nPjwhLS1saW5rIHNwcmluZ2Jvb3QgdG8gc29uZ1NlcnZpY2UtLT48ZyBpZD0ibGlua19zcHJpbmdib290X3NvbmdTZXJ2aWNlIj48cGF0aCBkPSJNNzIyLjY3LDQwMC4xNiBDNzgwLjQsNDA2LjAxIDg1Mi45LDQxOC44OCA5MTIsNDQ3IEM5NDQuMiw0NjIuMzIgOTcwLjA3MzgsNDg2LjU4OCA5ODguNDEzOCw1MDYuNDg4ICIgZmlsbD0ibm9uZSIgaWQ9InNwcmluZ2Jvb3QtdG8tc29uZ1NlcnZpY2UiIHN0eWxlPSJzdHJva2U6IzAwMDAwMDtzdHJva2Utd2lkdGg6MS4wOyIvPjxwb2x5Z29uIGZpbGw9IiMwMDAwMDAiIHBvaW50cz0iOTkyLjQ4LDUxMC45LDk4OS4zMjIxLDUwMS41NzExLDk4OS4wOTE1LDUwNy4yMjMzLDk4My40Mzk0LDUwNi45OTI3LDk5Mi40OCw1MTAuOSIgc3R5bGU9InN0cm9rZTojMDAwMDAwO3N0cm9rZS13aWR0aDoxLjA7Ii8+PHRleHQgZmlsbD0iIzAwMDAwMCIgZm9udC1mYW1pbHk9InNhbnMtc2VyaWYiIGZvbnQtc2l6ZT0iMTMiIGxlbmd0aEFkanVzdD0ic3BhY2luZyIgdGV4dExlbmd0aD0iMTMwIiB4PSI5MzciIHk9IjQ2MC4yODkxIj4mIzIyNzg4OyYjMjk3MDI7JiMzODg5OTsmIzIwMDQ4OyYjMzA0NTY7JiMyMDg1MTsmIzE5OTk0OyYjMjExNTM7JiMzNjkyMzsmIzM2NzUzOzwvdGV4dD48L2c+PCEtLWxpbmsgc3ByaW5nYm9vdCB0byBzaW5nZXJTZXJ2aWNlLS0+PGcgaWQ9Imxpbmtfc3ByaW5nYm9vdF9zaW5nZXJTZXJ2aWNlIj48cGF0aCBkPSJNNzIyLjYsNDAwLjExIEM4MzYuNTgsNDA2LjUxIDEwMTQuNTEsNDIwLjQ0IDEwNzYsNDQ3IEMxMTA5LjMyLDQ2MS4zOSAxMTM1LjkzMTMsNDg2LjE3MTEgMTE1NC41MjEzLDUwNi40MTExICIgZmlsbD0ibm9uZSIgaWQ9InNwcmluZ2Jvb3QtdG8tc2luZ2VyU2VydmljZSIgc3R5bGU9InN0cm9rZTojMDAwMDAwO3N0cm9rZS13aWR0aDoxLjA7Ii8+PHBvbHlnb24gZmlsbD0iIzAwMDAwMCIgcG9pbnRzPSIxMTU4LjU4LDUxMC44MywxMTU1LjQzNzksNTAxLjQ5NTgsMTE1NS4xOTc4LDUwNy4xNDc2LDExNDkuNTQ2LDUwNi45MDc0LDExNTguNTgsNTEwLjgzIiBzdHlsZT0ic3Ryb2tlOiMwMDAwMDA7c3Ryb2tlLXdpZHRoOjEuMDsiLz48dGV4dCBmaWxsPSIjMDAwMDAwIiBmb250LWZhbWlseT0ic2Fucy1zZXJpZiIgZm9udC1zaXplPSIxMyIgbGVuZ3RoQWRqdXN0PSJzcGFjaW5nIiB0ZXh0TGVuZ3RoPSIxMzAiIHg9IjExMDIiIHk9IjQ2MC4yODkxIj4mIzIyNzg4OyYjMjk3MDI7JiMyNzQ2ODsmIzI1MTYzOyYjMzA0NTY7JiMyMDg1MTsmIzE5OTk0OyYjMjExNTM7JiMzNjkyMzsmIzM2NzUzOzwvdGV4dD48L2c+PCEtLWxpbmsgc3ByaW5nYm9vdCB0byBzb25nTGlzdFNlcnZpY2UtLT48ZyBpZD0ibGlua19zcHJpbmdib290X3NvbmdMaXN0U2VydmljZSI+PHBhdGggZD0iTTUyMS4xNiw0MDMuMzggQzQ0OS4yNCw0MTAuODIgMzYwLjMxLDQyNC4zIDMzMSw0NDcgQzMxMC44OCw0NjIuNTggMzAyLjIxODQsNDg1LjA5MDEgMjk3LjQwODQsNTA0Ljg2MDEgIiBmaWxsPSJub25lIiBpZD0ic3ByaW5nYm9vdC10by1zb25nTGlzdFNlcnZpY2UiIHN0eWxlPSJzdHJva2U6IzAwMDAwMDtzdHJva2Utd2lkdGg6MS4wOyIvPjxwb2x5Z29uIGZpbGw9IiMwMDAwMDAiIHBvaW50cz0iMjk1Ljk5LDUxMC42OSwzMDIuMDA0Miw1MDIuODkwNywyOTcuMTcyLDUwNS44MzE3LDI5NC4yMzEsNTAwLjk5OTUsMjk1Ljk5LDUxMC42OSIgc3R5bGU9InN0cm9rZTojMDAwMDAwO3N0cm9rZS13aWR0aDoxLjA7Ii8+PHRleHQgZmlsbD0iIzAwMDAwMCIgZm9udC1mYW1pbHk9InNhbnMtc2VyaWYiIGZvbnQtc2l6ZT0iMTMiIGxlbmd0aEFkanVzdD0ic3BhY2luZyIgdGV4dExlbmd0aD0iMTMwIiB4PSIzMzIiIHk9IjQ2MC4yODkxIj4mIzIyNzg4OyYjMjk3MDI7JiMyNzQ2ODsmIzIxMzMzOyYjMzA0NTY7JiMyMDg1MTsmIzE5OTk0OyYjMjExNTM7JiMzNjkyMzsmIzM2NzUzOzwvdGV4dD48L2c+PCEtLWxpbmsgc3ByaW5nYm9vdCB0byBjb21tZW50U2VydmljZS0tPjxnIGlkPSJsaW5rX3NwcmluZ2Jvb3RfY29tbWVudFNlcnZpY2UiPjxwYXRoIGQ9Ik02MjAuNDcsNDE3LjA0IEM2MTkuODgsNDI2LjI2IDYxOS4yOSw0MzcuMTUgNjE5LDQ0NyBDNjE4LjgxLDQ1My42NiA2MTguMDgsNDU1LjQgNjE5LDQ2MiBDNjIxLjMzLDQ3OC43NiA2MjQuNzU2Myw0OTEuNDMzNCA2MjkuMzE2Myw1MDUuMjIzNCAiIGZpbGw9Im5vbmUiIGlkPSJzcHJpbmdib290LXRvLWNvbW1lbnRTZXJ2aWNlIiBzdHlsZT0ic3Ryb2tlOiMwMDAwMDA7c3Ryb2tlLXdpZHRoOjEuMDsiLz48cG9seWdvbiBmaWxsPSIjMDAwMDAwIiBwb2ludHM9IjYzMS4yLDUxMC45Miw2MzIuMTcyMiw1MDEuMTE5Miw2MjkuNjMwMiw1MDYuMTcyOCw2MjQuNTc2Nyw1MDMuNjMwOSw2MzEuMiw1MTAuOTIiIHN0eWxlPSJzdHJva2U6IzAwMDAwMDtzdHJva2Utd2lkdGg6MS4wOyIvPjx0ZXh0IGZpbGw9IiMwMDAwMDAiIGZvbnQtZmFtaWx5PSJzYW5zLXNlcmlmIiBmb250LXNpemU9IjEzIiBsZW5ndGhBZGp1c3Q9InNwYWNpbmciIHRleHRMZW5ndGg9IjEzMCIgeD0iNjIwIiB5PSI0NjAuMjg5MSI+JiMyMjc4ODsmIzI5NzAyOyYjMzU3ODA7JiMzNTc3MDsmIzMwNDU2OyYjMjA4NTE7JiMxOTk5NDsmIzIxMTUzOyYjMzY5MjM7JiMzNjc1Mzs8L3RleHQ+PC9nPjwhLS1saW5rIHNwcmluZ2Jvb3QgdG8gY29sbGVjdFNlcnZpY2UtLT48ZyBpZD0ibGlua19zcHJpbmdib290X2NvbGxlY3RTZXJ2aWNlIj48cGF0aCBkPSJNNjk1Ljg4LDQxNy4wMSBDNzE2LjAzLDQyNC43MiA3MzcuMiw0MzQuNjUgNzU1LDQ0NyBDNzgwLjEyLDQ2NC40NCA3OTguOTkxMyw0ODYuOTg3NCA4MTIuODUxMyw1MDYuMDQ3NCAiIGZpbGw9Im5vbmUiIGlkPSJzcHJpbmdib290LXRvLWNvbGxlY3RTZXJ2aWNlIiBzdHlsZT0ic3Ryb2tlOiMwMDAwMDA7c3Ryb2tlLXdpZHRoOjEuMDsiLz48cG9seWdvbiBmaWxsPSIjMDAwMDAwIiBwb2ludHM9IjgxNi4zOCw1MTAuOSw4MTQuMzIyLDUwMS4yNjg2LDgxMy40Mzk0LDUwNi44NTYxLDgwNy44NTE4LDUwNS45NzM1LDgxNi4zOCw1MTAuOSIgc3R5bGU9InN0cm9rZTojMDAwMDAwO3N0cm9rZS13aWR0aDoxLjA7Ii8+PHRleHQgZmlsbD0iIzAwMDAwMCIgZm9udC1mYW1pbHk9InNhbnMtc2VyaWYiIGZvbnQtc2l6ZT0iMTMiIGxlbmd0aEFkanVzdD0ic3BhY2luZyIgdGV4dExlbmd0aD0iMTMwIiB4PSI3NzMiIHk9IjQ2MC4yODkxIj4mIzIyNzg4OyYjMjk3MDI7JiMyNTkxMDsmIzM0MjU1OyYjMzA0NTY7JiMyMDg1MTsmIzE5OTk0OyYjMjExNTM7JiMzNjkyMzsmIzM2NzUzOzwvdGV4dD48L2c+PCEtLWxpbmsgdXNlclNlcnZpY2UgdG8gbXliYXRpcy0tPjxnIGlkPSJsaW5rX3VzZXJTZXJ2aWNlX215YmF0aXMiPjxwYXRoIGQ9Ik01MDAuMjcsNTU2LjEzIEM1MTQuNCw1NjQuNzEgNTMxLjQ5LDU3My45NiA1NDgsNTgwIEM1NjYuMjYsNTg2LjY4IDU3Mi40OSw1ODIuMDUgNTkxLDU4OCBDNjA1Ljk1LDU5Mi44MSA2MDguNDQsNTk3LjEyIDYyMyw2MDMgQzY3MC40OSw2MjIuMTkgNzE5LjcwOTUsNjM4Ljk3ODkgNzYwLjg5OTUsNjUyLjI1ODkgIiBmaWxsPSJub25lIiBpZD0idXNlclNlcnZpY2UtdG8tbXliYXRpcyIgc3R5bGU9InN0cm9rZTojMDAwMDAwO3N0cm9rZS13aWR0aDoxLjA7Ii8+PHBvbHlnb24gZmlsbD0iIzAwMDAwMCIgcG9pbnRzPSI3NjYuNjEsNjU0LjEsNzU5LjI3MTYsNjQ3LjUzMTMsNzYxLjg1MTIsNjUyLjU2NTcsNzU2LjgxNjgsNjU1LjE0NTMsNzY2LjYxLDY1NC4xIiBzdHlsZT0ic3Ryb2tlOiMwMDAwMDA7c3Ryb2tlLXdpZHRoOjEuMDsiLz48dGV4dCBmaWxsPSIjMDAwMDAwIiBmb250LWZhbWlseT0ic2Fucy1zZXJpZiIgZm9udC1zaXplPSIxMyIgbGVuZ3RoQWRqdXN0PSJzcGFjaW5nIiB0ZXh0TGVuZ3RoPSI5MSIgeD0iNjI0IiB5PSI2MDEuMjg5MSI+JiMyOTk5MjsmIzI1MTQzOyYjMjU5Njg7JiMyNTQ1NDsmIzM1Nzc1OyYjMzgzODI7JiMyMzYxODs8L3RleHQ+PC9nPjwhLS1saW5rIHNvbmdTZXJ2aWNlIHRvIG15YmF0aXMtLT48ZyBpZD0ibGlua19zb25nU2VydmljZV9teWJhdGlzIj48cGF0aCBkPSJNOTk4LjAxLDU1Ni4xOSBDOTg4LjUzLDU3MC43MiA5NzQuNjQsNTg5LjU4IDk1OSw2MDMgQzkzNS42Miw2MjMuMDYgOTExLjAwMDMsNjM3LjIxNiA4ODUuNzAwMyw2NDkuMzQ2ICIgZmlsbD0ibm9uZSIgaWQ9InNvbmdTZXJ2aWNlLXRvLW15YmF0aXMiIHN0eWxlPSJzdHJva2U6IzAwMDAwMDtzdHJva2Utd2lkdGg6MS4wOyIvPjxwb2x5Z29uIGZpbGw9IiMwMDAwMDAiIHBvaW50cz0iODgwLjI5LDY1MS45NCw4OTAuMTM0OCw2NTEuNjU1OSw4ODQuNzk4Niw2NDkuNzc4NCw4ODYuNjc2Miw2NDQuNDQyMiw4ODAuMjksNjUxLjk0IiBzdHlsZT0ic3Ryb2tlOiMwMDAwMDA7c3Ryb2tlLXdpZHRoOjEuMDsiLz48dGV4dCBmaWxsPSIjMDAwMDAwIiBmb250LWZhbWlseT0ic2Fucy1zZXJpZiIgZm9udC1zaXplPSIxMyIgbGVuZ3RoQWRqdXN0PSJzcGFjaW5nIiB0ZXh0TGVuZ3RoPSI5MSIgeD0iOTc0IiB5PSI2MDEuMjg5MSI+JiMzODg5OTsmIzIwMDQ4OyYjMjU5Njg7JiMyNTQ1NDsmIzM1Nzc1OyYjMzgzODI7JiMyMzYxODs8L3RleHQ+PC9nPjwhLS1saW5rIHNpbmdlclNlcnZpY2UgdG8gbXliYXRpcy0tPjxnIGlkPSJsaW5rX3NpbmdlclNlcnZpY2VfbXliYXRpcyI+PHBhdGggZD0iTTExNDkuNTMsNTU2LjE3IEMxMTI5LjUzLDU3MS4wNyAxMTAxLjI4LDU5MC4zNyAxMDc0LDYwMyBDMTAxNC40NSw2MzAuNTYgOTQ3LjU2NTIsNjQ4LjUzOTkgODk2Ljg4NTIsNjU5Ljg3OTkgIiBmaWxsPSJub25lIiBpZD0ic2luZ2VyU2VydmljZS10by1teWJhdGlzIiBzdHlsZT0ic3Ryb2tlOiMwMDAwMDA7c3Ryb2tlLXdpZHRoOjEuMDsiLz48cG9seWdvbiBmaWxsPSIjMDAwMDAwIiBwb2ludHM9Ijg5MS4wMyw2NjEuMTksOTAwLjY4NjIsNjYzLjEyODMsODk1LjkwOTMsNjYwLjA5ODIsODk4LjkzOTQsNjU1LjMyMTMsODkxLjAzLDY2MS4xOSIgc3R5bGU9InN0cm9rZTojMDAwMDAwO3N0cm9rZS13aWR0aDoxLjA7Ii8+PHRleHQgZmlsbD0iIzAwMDAwMCIgZm9udC1mYW1pbHk9InNhbnMtc2VyaWYiIGZvbnQtc2l6ZT0iMTMiIGxlbmd0aEFkanVzdD0ic3BhY2luZyIgdGV4dExlbmd0aD0iOTEiIHg9IjExMDEiIHk9IjYwMS4yODkxIj4mIzI3NDY4OyYjMjUxNjM7JiMyNTk2ODsmIzI1NDU0OyYjMzU3NzU7JiMzODM4MjsmIzIzNjE4OzwvdGV4dD48L2c+PCEtLWxpbmsgc29uZ0xpc3RTZXJ2aWNlIHRvIG15YmF0aXMtLT48ZyBpZD0ibGlua19zb25nTGlzdFNlcnZpY2VfbXliYXRpcyI+PHBhdGggZD0iTTI5MC40NSw1NTYuMTUgQzI5MC42Myw1NzEuNjUgMjkzLjc2LDU5MS43IDMwNyw2MDMgQzMxOC42OCw2MTIuOTcgNDI5LjczLDYwOS4zMiA0NDUsNjExIEM1NTkuMTQsNjIzLjU2IDY4NS4xMjQ2LDY0NS44ODQ0IDc2MC44NTQ2LDY2MC4yMTQ0ICIgZmlsbD0ibm9uZSIgaWQ9InNvbmdMaXN0U2VydmljZS10by1teWJhdGlzIiBzdHlsZT0ic3Ryb2tlOiMwMDAwMDA7c3Ryb2tlLXdpZHRoOjEuMDsiLz48cG9seWdvbiBmaWxsPSIjMDAwMDAwIiBwb2ludHM9Ijc2Ni43NSw2NjEuMzMsNzU4LjY1MDYsNjU1LjcyNjQsNzYxLjgzNzIsNjYwLjQwMDQsNzU3LjE2MzIsNjYzLjU4NjksNzY2Ljc1LDY2MS4zMyIgc3R5bGU9InN0cm9rZTojMDAwMDAwO3N0cm9rZS13aWR0aDoxLjA7Ii8+PHRleHQgZmlsbD0iIzAwMDAwMCIgZm9udC1mYW1pbHk9InNhbnMtc2VyaWYiIGZvbnQtc2l6ZT0iMTMiIGxlbmd0aEFkanVzdD0ic3BhY2luZyIgdGV4dExlbmd0aD0iOTEiIHg9IjMwOCIgeT0iNjAxLjI4OTEiPiYjMjc0Njg7JiMyMTMzMzsmIzI1OTY4OyYjMjU0NTQ7JiMzNTc3NTsmIzM4MzgyOyYjMjM2MTg7PC90ZXh0PjwvZz48IS0tbGluayBjb21tZW50U2VydmljZSB0byBteWJhdGlzLS0+PGcgaWQ9ImxpbmtfY29tbWVudFNlcnZpY2VfbXliYXRpcyI+PHBhdGggZD0iTTY3NS42Miw1NTYuMiBDNjkwLjg2LDU2NS41NyA3MDguNTYsNTc2LjkyIDcyNCw1ODggQzc1Mi40Niw2MDguNDMgNzc4LjgwMDEsNjMwLjE0MDMgNzk5LjY2MDEsNjQ3Ljk4MDMgIiBmaWxsPSJub25lIiBpZD0iY29tbWVudFNlcnZpY2UtdG8tbXliYXRpcyIgc3R5bGU9InN0cm9rZTojMDAwMDAwO3N0cm9rZS13aWR0aDoxLjA7Ii8+PHBvbHlnb24gZmlsbD0iIzAwMDAwMCIgcG9pbnRzPSI4MDQuMjIsNjUxLjg4LDc5OS45OCw2NDIuOTkwNSw4MDAuNDIwMSw2NDguNjMwMiw3OTQuNzgwNCw2NDkuMDcwMyw4MDQuMjIsNjUxLjg4IiBzdHlsZT0ic3Ryb2tlOiMwMDAwMDA7c3Ryb2tlLXdpZHRoOjEuMDsiLz48dGV4dCBmaWxsPSIjMDAwMDAwIiBmb250LWZhbWlseT0ic2Fucy1zZXJpZiIgZm9udC1zaXplPSIxMyIgbGVuZ3RoQWRqdXN0PSJzcGFjaW5nIiB0ZXh0TGVuZ3RoPSI5MSIgeD0iNzQyIiB5PSI2MDEuMjg5MSI+JiMzNTc4MDsmIzM1NzcwOyYjMjU5Njg7JiMyNTQ1NDsmIzM1Nzc1OyYjMzgzODI7JiMyMzYxODs8L3RleHQ+PC9nPjwhLS1saW5rIGNvbGxlY3RTZXJ2aWNlIHRvIG15YmF0aXMtLT48ZyBpZD0ibGlua19jb2xsZWN0U2VydmljZV9teWJhdGlzIj48cGF0aCBkPSJNODQ0LjI0LDU1Ni4wNSBDODQ5LjI5LDU2NS41IDg1NC40NSw1NzYuOTMgODU3LDU4OCBDODYyLjA4LDYxMC4wNyA4NTUuMjk1MSw2MjkuMzAzNyA4NDUuOTY1MSw2NDYuMzkzNyAiIGZpbGw9Im5vbmUiIGlkPSJjb2xsZWN0U2VydmljZS10by1teWJhdGlzIiBzdHlsZT0ic3Ryb2tlOiMwMDAwMDA7c3Ryb2tlLXdpZHRoOjEuMDsiLz48cG9seWdvbiBmaWxsPSIjMDAwMDAwIiBwb2ludHM9Ijg0My4wOSw2NTEuNjYsODUwLjkxMzUsNjQ1LjY3NzIsODQ1LjQ4NTksNjQ3LjI3MTQsODQzLjg5MTcsNjQxLjg0MzgsODQzLjA5LDY1MS42NiIgc3R5bGU9InN0cm9rZTojMDAwMDAwO3N0cm9rZS13aWR0aDoxLjA7Ii8+PHRleHQgZmlsbD0iIzAwMDAwMCIgZm9udC1mYW1pbHk9InNhbnMtc2VyaWYiIGZvbnQtc2l6ZT0iMTMiIGxlbmd0aEFkanVzdD0ic3BhY2luZyIgdGV4dExlbmd0aD0iOTEiIHg9Ijg1OSIgeT0iNjAxLjI4OTEiPiYjMjU5MTA7JiMzNDI1NTsmIzI1OTY4OyYjMjU0NTQ7JiMzNTc3NTsmIzM4MzgyOyYjMjM2MTg7PC90ZXh0PjwvZz48IS0tbGluayBteWJhdGlzIHRvIG15c3FsLS0+PGcgaWQ9ImxpbmtfbXliYXRpc19teXNxbCI+PHBhdGggZD0iTTgzMC4yNyw2OTcuMjMgQzgzMS41NCw3MTguOTggODMzLjEzMiw3NDYuMjUwMSA4MzQuMzkyLDc2Ny45NDAxICIgZmlsbD0ibm9uZSIgaWQ9Im15YmF0aXMtdG8tbXlzcWwiIHN0eWxlPSJzdHJva2U6IzAwMDAwMDtzdHJva2Utd2lkdGg6MS4wOyIvPjxwb2x5Z29uIGZpbGw9IiMwMDAwMDAiIHBvaW50cz0iODM0Ljc0LDc3My45Myw4MzguMjExMyw3NjQuNzEzMiw4MzQuNDUsNzY4LjkzODQsODMwLjIyNDgsNzY1LjE3NzEsODM0Ljc0LDc3My45MyIgc3R5bGU9InN0cm9rZTojMDAwMDAwO3N0cm9rZS13aWR0aDoxLjA7Ii8+PHRleHQgZmlsbD0iIzAwMDAwMCIgZm9udC1mYW1pbHk9InNhbnMtc2VyaWYiIGZvbnQtc2l6ZT0iMTMiIGxlbmd0aEFkanVzdD0ic3BhY2luZyIgdGV4dExlbmd0aD0iOTEiIHg9IjgzMyIgeT0iNzQyLjI4OTEiPiYjMjUzNDU7JiMyMDAzNzsmIzIxMjcwOyYjMjU5Njg7JiMyNTQ1NDsmIzIzMzg0OyYjMjA2NDg7PC90ZXh0PjwvZz48IS0tbGluayBtaW5pb1NlcnZpY2UgdG8gbWluaW8tLT48ZyBpZD0ibGlua19taW5pb1NlcnZpY2VfbWluaW8iPjxwYXRoIGQ9Ik03OC41NSw1NTYuMDEgQzYyLjcsNTY5LjAyIDQ5LjE2LDU4Ni4yOCA1OSw2MDMgQzcyLjExLDYyNS4yOCA4OS42NjEzLDYzOC40NDM1IDExMi41MDEzLDY0OS4zMDM1ICIgZmlsbD0ibm9uZSIgaWQ9Im1pbmlvU2VydmljZS10by1taW5pbyIgc3R5bGU9InN0cm9rZTojMDAwMDAwO3N0cm9rZS13aWR0aDoxLjA7Ii8+PHBvbHlnb24gZmlsbD0iIzAwMDAwMCIgcG9pbnRzPSIxMTcuOTIsNjUxLjg4LDExMS41MDk3LDY0NC40MDI5LDExMy40MDQ1LDY0OS43MzI5LDEwOC4wNzQ0LDY1MS42Mjc3LDExNy45Miw2NTEuODgiIHN0eWxlPSJzdHJva2U6IzAwMDAwMDtzdHJva2Utd2lkdGg6MS4wOyIvPjx0ZXh0IGZpbGw9IiMwMDAwMDAiIGZvbnQtZmFtaWx5PSJzYW5zLXNlcmlmIiBmb250LXNpemU9IjEzIiBsZW5ndGhBZGp1c3Q9InNwYWNpbmciIHRleHRMZW5ndGg9IjE4MiIgeD0iNjAiIHk9IjYwMS4yODkxIj4mIzIzMzg0OyYjMjA2NDg7JiMzODg5OTsmIzIwMDQ4OyYjMjU5OTE7JiMyMDIxNDsmIzEyMjg5OyYjMjIyNzA7JiMyOTI1NTsmIzMxNTYxOyYjMjMxODY7JiMyMDMwNzsmIzI1OTkxOyYjMjAyMTQ7PC90ZXh0PjwvZz48IS0tbGluayB1c2VyU2VydmljZSB0byByZWRpcy0tPjxnIGlkPSJsaW5rX3VzZXJTZXJ2aWNlX3JlZGlzIj48cGF0aCBkPSJNNDQ0LjI1LDU1Ni4xNSBDNDM0LjgyLDU2NS40MyA0MjQuMjcsNTc2LjcyIDQxNiw1ODggQzQwMS4xNiw2MDguMjYgMzkwLjU2MDEsNjI4LjQ2ODkgMzgyLjE2MDEsNjQ2LjM1ODkgIiBmaWxsPSJub25lIiBpZD0idXNlclNlcnZpY2UtdG8tcmVkaXMiIHN0eWxlPSJzdHJva2U6IzAwMDAwMDtzdHJva2Utd2lkdGg6MS4wOyIvPjxwb2x5Z29uIGZpbGw9IiMwMDAwMDAiIHBvaW50cz0iMzc5LjYxLDY1MS43OSwzODcuMDU1OSw2NDUuMzQzNCwzODEuNzM1MSw2NDcuMjY0MSwzNzkuODE0NCw2NDEuOTQzMywzNzkuNjEsNjUxLjc5IiBzdHlsZT0ic3Ryb2tlOiMwMDAwMDA7c3Ryb2tlLXdpZHRoOjEuMDsiLz48dGV4dCBmaWxsPSIjMDAwMDAwIiBmb250LWZhbWlseT0ic2Fucy1zZXJpZiIgZm9udC1zaXplPSIxMyIgbGVuZ3RoQWRqdXN0PSJzcGFjaW5nIiB0ZXh0TGVuZ3RoPSIxNjkiIHg9IjQxNyIgeT0iNjAxLjI4OTEiPiYjMzI1MzE7JiMyMzM4NDsmIzI5OTkyOyYjMjUxNDM7JiMyMDI1MDsmIzM1ODA1OyYjMjA0NDk7JiMyNDY4NzsmIzIxNjQ0OyYjMjQxMjA7JiMyOTk5MjsmIzI1OTY4OyYjMjU0NTQ7PC90ZXh0PjwvZz48cmVjdCBmaWxsPSIjREREREREIiBoZWlnaHQ9IjIwNC43OTY5IiBpZD0iX2xlZ2VuZCIgcng9IjcuNSIgcnk9IjcuNSIgc3R5bGU9InN0cm9rZTojMDAwMDAwO3N0cm9rZS13aWR0aDoxLjA7IiB3aWR0aD0iMjc3IiB4PSIxNDk0IiB5PSI4NzciLz48dGV4dCBmaWxsPSIjMDAwMDAwIiBmb250LWZhbWlseT0ic2Fucy1zZXJpZiIgZm9udC1zaXplPSIxNCIgbGVuZ3RoQWRqdXN0PSJzcGFjaW5nIiB0ZXh0TGVuZ3RoPSIxMDUiIHg9IjE0OTkiIHk9Ijg5NS4yMzQ0Ij4mIzM5MDMzOyYjMzA0NDY7JiMyNTIxNjsmIzI2NDE1OyYjMjY2MzI7JiMzNTgyODsmIzI2MTI2Ozo8L3RleHQ+PHRleHQgZmlsbD0iIzAwMDAwMCIgZm9udC1mYW1pbHk9InNhbnMtc2VyaWYiIGZvbnQtc2l6ZT0iMTQiIGxlbmd0aEFkanVzdD0ic3BhY2luZyIgdGV4dExlbmd0aD0iMjY3IiB4PSIxNDk5IiB5PSI5MTAuMjE4OCI+JiMyMTA2OTsmIzMxNDcxOzogVnVlMyArIFR5cGVTY3JpcHQgKyBFbGVtZW50IFBsdXM8L3RleHQ+PHRleHQgZmlsbD0iIzAwMDAwMCIgZm9udC1mYW1pbHk9InNhbnMtc2VyaWYiIGZvbnQtc2l6ZT0iMTQiIGxlbmd0aEFkanVzdD0ic3BhY2luZyIgdGV4dExlbmd0aD0iMTQwIiB4PSIxNDk5IiB5PSI5MjUuMjAzMSI+LSAmIzIzNDU0OyYjMjk2MTY7JiMyOTk5MjsmIzI1MTQzOyYjMzAwMjg7JiMzODc1NDsmIzIxNjQ0OyYjMjAxMzI7JiMyMDExNDs8L3RleHQ+PHRleHQgZmlsbD0iIzAwMDAwMCIgZm9udC1mYW1pbHk9InNhbnMtc2VyaWYiIGZvbnQtc2l6ZT0iMTQiIGxlbmd0aEFkanVzdD0ic3BhY2luZyIgdGV4dExlbmd0aD0iMTU0IiB4PSIxNDk5IiB5PSI5NDAuMTg3NSI+LSAmIzI1OTY4OyYjMjU0NTQ7JiMyMTQ4NzsmIzM1MjcwOyYjMjEyNzA7JiMyMTY0NDsmIzI5MzY2OyYjMjQ1Nzc7JiMzMTY0OTsmIzI5NzAyOzwvdGV4dD48dGV4dCBmaWxsPSIjMDAwMDAwIiBmb250LWZhbWlseT0ic2Fucy1zZXJpZiIgZm9udC1zaXplPSIxNCIgbGVuZ3RoQWRqdXN0PSJzcGFjaW5nIiB0ZXh0TGVuZ3RoPSI3IiB4PSIxNDk5IiB5PSI5NTUuMTcxOSI+JiMxNjA7PC90ZXh0Pjx0ZXh0IGZpbGw9IiMwMDAwMDAiIGZvbnQtZmFtaWx5PSJzYW5zLXNlcmlmIiBmb250LXNpemU9IjE0IiBsZW5ndGhBZGp1c3Q9InNwYWNpbmciIHRleHRMZW5ndGg9IjIyNCIgeD0iMTQ5OSIgeT0iOTcwLjE1NjMiPiYjMjE1MTg7JiMzMTQ3MTs6IFNwcmluZyBCb290ICsgTXlCYXRpcyBQbHVzPC90ZXh0Pjx0ZXh0IGZpbGw9IiMwMDAwMDAiIGZvbnQtZmFtaWx5PSJzYW5zLXNlcmlmIiBmb250LXNpemU9IjE0IiBsZW5ndGhBZGp1c3Q9InNwYWNpbmciIHRleHRMZW5ndGg9Ijk4IiB4PSIxNDk5IiB5PSI5ODUuMTQwNiI+LSAmIzIyNzg4OyYjMjk3MDI7JiMxOTk5NDsmIzIxMTUzOyYjMzY5MjM7JiMzNjc1Mzs8L3RleHQ+PHRleHQgZmlsbD0iIzAwMDAwMCIgZm9udC1mYW1pbHk9InNhbnMtc2VyaWYiIGZvbnQtc2l6ZT0iMTQiIGxlbmd0aEFkanVzdD0ic3BhY2luZyIgdGV4dExlbmd0aD0iMTQwIiB4PSIxNDk5IiB5PSIxMDAwLjEyNSI+LSAmIzI1OTY4OyYjMjU0NTQ7JiMzNTc3NTsmIzM4MzgyOyYjMjE2NDQ7JiMyMzQzMzsmIzIwODQwOyYjMjU1MTE7JiMyMTA0Njs8L3RleHQ+PHRleHQgZmlsbD0iIzAwMDAwMCIgZm9udC1mYW1pbHk9InNhbnMtc2VyaWYiIGZvbnQtc2l6ZT0iMTQiIGxlbmd0aEFkanVzdD0ic3BhY2luZyIgdGV4dExlbmd0aD0iNyIgeD0iMTQ5OSIgeT0iMTAxNS4xMDk0Ij4mIzE2MDs8L3RleHQ+PHRleHQgZmlsbD0iIzAwMDAwMCIgZm9udC1mYW1pbHk9InNhbnMtc2VyaWYiIGZvbnQtc2l6ZT0iMTQiIGxlbmd0aEFkanVzdD0ic3BhY2luZyIgdGV4dExlbmd0aD0iMTg5IiB4PSIxNDk5IiB5PSIxMDMwLjA5MzgiPiYjMjMzODQ7JiMyMDY0ODs6IE15U1FMICsgUmVkaXMgKyBNaW5JTzwvdGV4dD48dGV4dCBmaWxsPSIjMDAwMDAwIiBmb250LWZhbWlseT0ic2Fucy1zZXJpZiIgZm9udC1zaXplPSIxNCIgbGVuZ3RoQWRqdXN0PSJzcGFjaW5nIiB0ZXh0TGVuZ3RoPSI4NCIgeD0iMTQ5OSIgeT0iMTA0NS4wNzgxIj4tICYjMjU5Njg7JiMyNTQ1NDsmIzI1MzQ1OyYjMjAwMzc7JiMyMTI3MDs8L3RleHQ+PHRleHQgZmlsbD0iIzAwMDAwMCIgZm9udC1mYW1pbHk9InNhbnMtc2VyaWYiIGZvbnQtc2l6ZT0iMTQiIGxlbmd0aEFkanVzdD0ic3BhY2luZyIgdGV4dExlbmd0aD0iNzAiIHg9IjE0OTkiIHk9IjEwNjAuMDYyNSI+LSAmIzMyNTMxOyYjMjMzODQ7JiMyMTE1MjsmIzM2ODk1OzwvdGV4dD48dGV4dCBmaWxsPSIjMDAwMDAwIiBmb250LWZhbWlseT0ic2Fucy1zZXJpZiIgZm9udC1zaXplPSIxNCIgbGVuZ3RoQWRqdXN0PSJzcGFjaW5nIiB0ZXh0TGVuZ3RoPSI5OCIgeD0iMTQ5OSIgeT0iMTA3NS4wNDY5Ij4tICYjMjMxODY7JiMyMDMwNzsmIzI1OTkxOyYjMjAyMTQ7JiMyMzM4NDsmIzIwNjQ4OzwvdGV4dD48IS0tU1JDPVtaTFBSSi1ENjU3eEZoblhiN3NZNVU2ZFZ5YjA5cWdzQWo2V2ZXVlFYa20tRVNPRXhaZnRRSmhqSFhQSGlXR3FxNXZSQkJlQTU5SE5MZWhPdTg1ZWsyUDBWS3VfakZGS2x6Q29DNHUtVFE4TUtYeW9QeHBsZHA3VkVkRjQ4eWdteHp6UG8zWV9uSlR0a3gza0xhZHJMblZNVGNGNUNMZEUyQmNJSGc2THBjWWdmUGllaUExQkFQdkxGWGtzWWRzQzhKR1pZaXVva3ZUTnZmQVBlRWxmY0dKT2JPalZxVUtiZGpXYTVHNjBScnROajl6d3E2OGtEZTJ6cUpKS2JUSHZOYmFGdnYwMFhQMkdLeG03WURFMnRLdGIzNWI1SWFJNjU5LWY3Ti1VYkp6NGVjWXRhZjlJZW9wZHB1d1Q4QzkxOHp6NDNIU3VpYzZhYkJtTktBSzQ1bHphRnFoQ0t1ekNwa1lJZm04VFZGd2NhYmlyZ0FhaHNuMzFPVFgwNEZBOFBCTXpBLWpFLXVKYkFjUGVrLU9RNzJlc0VmZk15V1VPY1ZVbHVTcmFwcTlVcGl6Q3pjQldXd0FQMUxlajRnZHZpZWRjV0hvZ2Rvc2U2MURUQ0Q5eEJBUjhlY0JBY3FjQ09UMnlETW1GZnduOUFJVmdGaVlXNWdTeVBhandwS2R1VTNGd1E4UVBhVFY5bjI5QUxMTGFCT0w4UWZDRDMzMzN1UV9IMHFtS3JxcUQyU2Y2ODFaS0QtZGlhNi1RMEtzOENHS2JMWUI4eUs2SXMyNHZIOTk3ODU4NUlTbTFUWkNac2tNMEFRNW00cEdCSGZXZUo4QlgxZ3lhS0FRSTllUlVSLWtlSDhob3FPRllBNU9tVmIyN0VJT2wwZHkwbnJWZm4tZGo4MlZjUldVR0NDb0ZERy1ZYTgyd21CUHNpVW1xcFdsMWdyVnNwd05LRWREaGxVRmRTRk0tN2hmWF9JU1I2RldrckJLZ1drN1ZQVEJWRU5BbFhoZ195VHJGMUhxbG1memx1ZnhsX2N0VHZ4anQtNU8tb1VwckVzRXhRWExDaTFVb0o3VnBZNjJ5VnV4RVlpdHRnTEFxbUV0ZVhZMGx4amtEazdTekRra3Fia3RzMU12bEVtSDlranpwajJnR0dmZEN0WHAxbl9MTXRNMjlCaHRkZmRCdDB2TEV5TldDVHVoNk9Wdy03ZFBYYkktSVlIdFRneHQ3djhYdmJYNHhQT18zNzNKRTZkSW9XcVJFbTB1UGZhSEZyNlVGSmEtbkNhSVotZjIxT2ZZLWtEeHR0QXhabzZmemprcVNqRTdkODlzNDVpdTdHUFh3Y1BoX0JBbVdZVDhreFRnVm5INktyWG5QWXdaNzdUa2w4UmN0NElORlA3U2xQa2xPdHRyUm5NZURsajFaZGR1SlpIV2FqNGRLRTVOUkFiLXhVNU4zaWdycm1xSXNzbFJqTnlJWVJkcDgxdE5kemFsRzZ4UXVGcWxhOXI2VHR0dnRSci1qM1dnQzFFWi1La0YwZDVNVnJydGphN3ZiTDhHLXVrZHFGMy00WDVaWm1jYWtVclJnTjB0d3FTSGJpTk5YbHdpQ1NuRllBcUhnbWtLT1JhalFEVE9IZFRSZmxCNG53YWZTdm1jMVkzcDkyb2FPdUpELVhLTldyMXJjV3dHMGhlYzI0bjdHU0dXZ2Y1ZXI0akhpV25OZUcxZVRYSnk0bVRRLU51S1J3NXZHc0JHN3BkVHJsVExlVzJsNjVldnQtUng2NHoteFNyUFZrb0loLU95RS10TUpzLTQyanczajBBdE1wMk52T2xVb1JOUS12M3RWUkFKTm5IV0xWTkg2eEZ1X1hHWWpJMVp1aGtoeVN1XzlBdzlyVzZxV2Q3cUZtazdHUnItd1V2UW1MZFJURHZ4M2lEVnpzVGNlOXM2M0ZKRzhEVjVKMVdmLTQwMXIzczNmbVF3Vi0xQTJKNDc5WXV1TmtIbVZQSGVLVmktcGpQQ0NkV1ZYbGU1NzRseVdpNTZycmxoc3YyN3hiRzB6aDVQdWVEbFR6enhHMjJTR1V5TDc0TmJpOEc1dmNwYU1fampKNjlDVGhYenRZRW5RVUFuTHA2R0N2Y1FaXzBtMDBdLS0+PC9nPjwvc3ZnPg==;" vertex="1" parent="1">
            <mxGeometry x="10" y="1060" width="1797" height="1101" as="geometry" />
          </mxCell>
        </UserObject>
      </root>
    </mxGraphModel>
  </diagram>
</mxfile>
